<mxfile host="app.diagrams.net" modified="2023-07-04T15:21:47.982Z" agent="Mozilla/5.0 (Windows NT 10.0; Win64; x64) AppleWebKit/537.36 (KHTML, like Gecko) Chrome/114.0.0.0 Safari/537.36" etag="mXt6nLXxayZoRlXniOG8" version="21.5.2" type="device">
  <diagram id="C5RBs43oDa-KdzZeNtuy" name="Page-1">
    <mxGraphModel dx="3532" dy="3173" grid="1" gridSize="10" guides="1" tooltips="1" connect="1" arrows="1" fold="1" page="1" pageScale="1" pageWidth="827" pageHeight="1169" math="0" shadow="0">
      <root>
        <mxCell id="WIyWlLk6GJQsqaUBKTNV-0" />
        <mxCell id="WIyWlLk6GJQsqaUBKTNV-1" parent="WIyWlLk6GJQsqaUBKTNV-0" />
        <mxCell id="lpf-UgZtvlRDL02pAS0L-455" value="" style="ellipse;whiteSpace=wrap;html=1;aspect=fixed;fillColor=#CCCCFF;" vertex="1" parent="WIyWlLk6GJQsqaUBKTNV-1">
          <mxGeometry x="6370" y="1231.5" width="50" height="50" as="geometry" />
        </mxCell>
        <mxCell id="lpf-UgZtvlRDL02pAS0L-198" style="edgeStyle=orthogonalEdgeStyle;rounded=0;orthogonalLoop=1;jettySize=auto;html=1;entryX=0.5;entryY=0;entryDx=0;entryDy=0;" edge="1" parent="WIyWlLk6GJQsqaUBKTNV-1" source="lpf-UgZtvlRDL02pAS0L-196" target="lpf-UgZtvlRDL02pAS0L-197">
          <mxGeometry relative="1" as="geometry" />
        </mxCell>
        <mxCell id="lpf-UgZtvlRDL02pAS0L-196" value="HEADER_MAIN &amp;amp;&amp;nbsp;&lt;br&gt;MSIC_MAIN Q1 2023 VX" style="rounded=1;whiteSpace=wrap;html=1;fontSize=12;glass=0;strokeWidth=1;shadow=0;" vertex="1" parent="WIyWlLk6GJQsqaUBKTNV-1">
          <mxGeometry x="5722.5" y="447.5" width="160" height="40" as="geometry" />
        </mxCell>
        <mxCell id="lpf-UgZtvlRDL02pAS0L-227" style="edgeStyle=orthogonalEdgeStyle;rounded=0;orthogonalLoop=1;jettySize=auto;html=1;" edge="1" parent="WIyWlLk6GJQsqaUBKTNV-1" source="lpf-UgZtvlRDL02pAS0L-197">
          <mxGeometry relative="1" as="geometry">
            <mxPoint x="5412.5" y="610" as="targetPoint" />
          </mxGeometry>
        </mxCell>
        <mxCell id="lpf-UgZtvlRDL02pAS0L-240" value="&lt;b&gt;FRD Vx&lt;/b&gt;" style="edgeLabel;html=1;align=center;verticalAlign=middle;resizable=0;points=[];" vertex="1" connectable="0" parent="lpf-UgZtvlRDL02pAS0L-227">
          <mxGeometry x="0.1823" y="2" relative="1" as="geometry">
            <mxPoint x="16" y="-2" as="offset" />
          </mxGeometry>
        </mxCell>
        <mxCell id="lpf-UgZtvlRDL02pAS0L-244" style="edgeStyle=orthogonalEdgeStyle;rounded=0;orthogonalLoop=1;jettySize=auto;html=1;entryX=0;entryY=0.5;entryDx=0;entryDy=0;" edge="1" parent="WIyWlLk6GJQsqaUBKTNV-1" source="lpf-UgZtvlRDL02pAS0L-197" target="lpf-UgZtvlRDL02pAS0L-226">
          <mxGeometry relative="1" as="geometry" />
        </mxCell>
        <mxCell id="lpf-UgZtvlRDL02pAS0L-254" style="edgeStyle=orthogonalEdgeStyle;rounded=0;orthogonalLoop=1;jettySize=auto;html=1;" edge="1" parent="WIyWlLk6GJQsqaUBKTNV-1" source="lpf-UgZtvlRDL02pAS0L-197" target="lpf-UgZtvlRDL02pAS0L-253">
          <mxGeometry relative="1" as="geometry">
            <Array as="points">
              <mxPoint x="5593" y="610" />
              <mxPoint x="5593" y="685" />
            </Array>
          </mxGeometry>
        </mxCell>
        <mxCell id="lpf-UgZtvlRDL02pAS0L-255" value="&lt;b&gt;FRD IND_STAT&lt;br&gt;ERROR DATA&amp;nbsp;&lt;br&gt;&lt;br&gt;&lt;/b&gt;" style="edgeLabel;html=1;align=center;verticalAlign=middle;resizable=0;points=[];" vertex="1" connectable="0" parent="lpf-UgZtvlRDL02pAS0L-254">
          <mxGeometry x="0.3957" y="3" relative="1" as="geometry">
            <mxPoint x="19" y="-3" as="offset" />
          </mxGeometry>
        </mxCell>
        <mxCell id="lpf-UgZtvlRDL02pAS0L-397" style="edgeStyle=orthogonalEdgeStyle;rounded=0;orthogonalLoop=1;jettySize=auto;html=1;entryX=1;entryY=0.5;entryDx=0;entryDy=0;" edge="1" parent="WIyWlLk6GJQsqaUBKTNV-1" source="lpf-UgZtvlRDL02pAS0L-197" target="lpf-UgZtvlRDL02pAS0L-395">
          <mxGeometry relative="1" as="geometry">
            <Array as="points">
              <mxPoint x="5600" y="610" />
              <mxPoint x="5600" y="750" />
            </Array>
          </mxGeometry>
        </mxCell>
        <mxCell id="lpf-UgZtvlRDL02pAS0L-398" value="&lt;b style=&quot;border-color: var(--border-color);&quot;&gt;REPORT IN TABLE&amp;nbsp;&lt;br&gt;&lt;/b&gt;" style="edgeLabel;html=1;align=center;verticalAlign=middle;resizable=0;points=[];" vertex="1" connectable="0" parent="lpf-UgZtvlRDL02pAS0L-397">
          <mxGeometry x="0.5164" y="-2" relative="1" as="geometry">
            <mxPoint x="25" y="2" as="offset" />
          </mxGeometry>
        </mxCell>
        <mxCell id="lpf-UgZtvlRDL02pAS0L-197" value="FINAL RAW DATA GENERATOR BASIC&amp;nbsp;" style="rounded=1;whiteSpace=wrap;html=1;fontSize=12;glass=0;strokeWidth=1;shadow=0;" vertex="1" parent="WIyWlLk6GJQsqaUBKTNV-1">
          <mxGeometry x="5612.5" y="590" width="160" height="40" as="geometry" />
        </mxCell>
        <mxCell id="lpf-UgZtvlRDL02pAS0L-203" style="edgeStyle=orthogonalEdgeStyle;rounded=0;orthogonalLoop=1;jettySize=auto;html=1;entryX=0.5;entryY=0;entryDx=0;entryDy=0;" edge="1" parent="WIyWlLk6GJQsqaUBKTNV-1" source="lpf-UgZtvlRDL02pAS0L-201" target="lpf-UgZtvlRDL02pAS0L-197">
          <mxGeometry relative="1" as="geometry" />
        </mxCell>
        <mxCell id="lpf-UgZtvlRDL02pAS0L-292" style="edgeStyle=orthogonalEdgeStyle;rounded=0;orthogonalLoop=1;jettySize=auto;html=1;entryX=1;entryY=0.5;entryDx=0;entryDy=0;" edge="1" parent="WIyWlLk6GJQsqaUBKTNV-1" source="lpf-UgZtvlRDL02pAS0L-201" target="lpf-UgZtvlRDL02pAS0L-286">
          <mxGeometry relative="1" as="geometry" />
        </mxCell>
        <mxCell id="lpf-UgZtvlRDL02pAS0L-201" value="RAWDATA SGTGU&lt;br&gt;Q1 2023 VX" style="rounded=1;whiteSpace=wrap;html=1;fontSize=12;glass=0;strokeWidth=1;shadow=0;" vertex="1" parent="WIyWlLk6GJQsqaUBKTNV-1">
          <mxGeometry x="5512.5" y="447.5" width="120" height="40" as="geometry" />
        </mxCell>
        <mxCell id="lpf-UgZtvlRDL02pAS0L-206" style="edgeStyle=orthogonalEdgeStyle;rounded=0;orthogonalLoop=1;jettySize=auto;html=1;" edge="1" parent="WIyWlLk6GJQsqaUBKTNV-1" source="lpf-UgZtvlRDL02pAS0L-205" target="lpf-UgZtvlRDL02pAS0L-201">
          <mxGeometry relative="1" as="geometry" />
        </mxCell>
        <mxCell id="lpf-UgZtvlRDL02pAS0L-212" value="" style="group;fillColor=#FFB366;strokeColor=#FF6666;container=0;" vertex="1" connectable="0" parent="WIyWlLk6GJQsqaUBKTNV-1">
          <mxGeometry x="5492.5" y="370" width="160" height="35" as="geometry" />
        </mxCell>
        <mxCell id="lpf-UgZtvlRDL02pAS0L-210" value="" style="rounded=0;whiteSpace=wrap;html=1;fillColor=#FFB366;" vertex="1" parent="WIyWlLk6GJQsqaUBKTNV-1">
          <mxGeometry x="5492.5" y="370" width="160" height="35" as="geometry" />
        </mxCell>
        <mxCell id="lpf-UgZtvlRDL02pAS0L-205" value="&lt;b&gt;&lt;u&gt;EJOB ID ACCESS DATABASE&amp;nbsp;&lt;/u&gt;&lt;/b&gt;" style="text;html=1;strokeColor=none;fillColor=none;align=center;verticalAlign=middle;whiteSpace=wrap;rounded=0;container=0;" vertex="1" parent="WIyWlLk6GJQsqaUBKTNV-1">
          <mxGeometry x="5517.5" y="378.75" width="110" height="17.5" as="geometry" />
        </mxCell>
        <mxCell id="lpf-UgZtvlRDL02pAS0L-225" value="" style="group" vertex="1" connectable="0" parent="WIyWlLk6GJQsqaUBKTNV-1">
          <mxGeometry x="5362.5" y="585" width="55" height="50" as="geometry" />
        </mxCell>
        <mxCell id="lpf-UgZtvlRDL02pAS0L-223" value="" style="ellipse;whiteSpace=wrap;html=1;aspect=fixed;fillColor=#CCCCFF;" vertex="1" parent="lpf-UgZtvlRDL02pAS0L-225">
          <mxGeometry width="50" height="50" as="geometry" />
        </mxCell>
        <mxCell id="lpf-UgZtvlRDL02pAS0L-213" value="&lt;font style=&quot;font-size: 18px;&quot;&gt;&lt;b&gt;DB1&lt;/b&gt;&lt;/font&gt;" style="text;html=1;strokeColor=none;fillColor=none;align=left;verticalAlign=middle;whiteSpace=wrap;rounded=0;" vertex="1" parent="lpf-UgZtvlRDL02pAS0L-225">
          <mxGeometry x="5" y="10" width="50" height="30" as="geometry" />
        </mxCell>
        <mxCell id="lpf-UgZtvlRDL02pAS0L-245" style="edgeStyle=orthogonalEdgeStyle;rounded=0;orthogonalLoop=1;jettySize=auto;html=1;entryX=0.5;entryY=1;entryDx=0;entryDy=0;" edge="1" parent="WIyWlLk6GJQsqaUBKTNV-1" source="lpf-UgZtvlRDL02pAS0L-226" target="lpf-UgZtvlRDL02pAS0L-243">
          <mxGeometry relative="1" as="geometry" />
        </mxCell>
        <mxCell id="lpf-UgZtvlRDL02pAS0L-379" style="edgeStyle=orthogonalEdgeStyle;rounded=0;orthogonalLoop=1;jettySize=auto;html=1;" edge="1" parent="WIyWlLk6GJQsqaUBKTNV-1" source="lpf-UgZtvlRDL02pAS0L-226" target="lpf-UgZtvlRDL02pAS0L-377">
          <mxGeometry relative="1" as="geometry" />
        </mxCell>
        <mxCell id="lpf-UgZtvlRDL02pAS0L-226" value="CONSISTENCY" style="rounded=1;whiteSpace=wrap;html=1;fontSize=12;glass=0;strokeWidth=1;shadow=0;" vertex="1" parent="WIyWlLk6GJQsqaUBKTNV-1">
          <mxGeometry x="5932.5" y="590" width="160" height="40" as="geometry" />
        </mxCell>
        <mxCell id="lpf-UgZtvlRDL02pAS0L-237" value="" style="group" vertex="1" connectable="0" parent="WIyWlLk6GJQsqaUBKTNV-1">
          <mxGeometry x="4440" y="354.5" width="120" height="103" as="geometry" />
        </mxCell>
        <mxCell id="lpf-UgZtvlRDL02pAS0L-232" value="&lt;b&gt;HDFS&lt;/b&gt;" style="rounded=0;whiteSpace=wrap;html=1;" vertex="1" parent="lpf-UgZtvlRDL02pAS0L-237">
          <mxGeometry y="43" width="120" height="60" as="geometry" />
        </mxCell>
        <mxCell id="lpf-UgZtvlRDL02pAS0L-236" value="" style="shape=image;verticalLabelPosition=bottom;labelBackgroundColor=default;verticalAlign=top;aspect=fixed;imageAspect=0;image=https://upload.wikimedia.org/wikipedia/commons/3/38/Hadoop_logo_new.svg;" vertex="1" parent="lpf-UgZtvlRDL02pAS0L-237">
          <mxGeometry width="120" height="36" as="geometry" />
        </mxCell>
        <mxCell id="lpf-UgZtvlRDL02pAS0L-246" style="edgeStyle=orthogonalEdgeStyle;rounded=0;orthogonalLoop=1;jettySize=auto;html=1;entryX=1;entryY=0.5;entryDx=0;entryDy=0;" edge="1" parent="WIyWlLk6GJQsqaUBKTNV-1" source="lpf-UgZtvlRDL02pAS0L-243" target="lpf-UgZtvlRDL02pAS0L-250">
          <mxGeometry relative="1" as="geometry">
            <Array as="points">
              <mxPoint x="6012.5" y="300" />
            </Array>
          </mxGeometry>
        </mxCell>
        <mxCell id="lpf-UgZtvlRDL02pAS0L-247" value="INFORM DOSM NEGERI&lt;br&gt;FOR UPDATES" style="edgeLabel;html=1;align=center;verticalAlign=middle;resizable=0;points=[];" vertex="1" connectable="0" parent="lpf-UgZtvlRDL02pAS0L-246">
          <mxGeometry x="-0.1573" y="-1" relative="1" as="geometry">
            <mxPoint x="-1" y="8" as="offset" />
          </mxGeometry>
        </mxCell>
        <mxCell id="lpf-UgZtvlRDL02pAS0L-243" value="AUDIT_REPORT" style="rounded=1;whiteSpace=wrap;html=1;fontSize=12;glass=0;strokeWidth=1;shadow=0;" vertex="1" parent="WIyWlLk6GJQsqaUBKTNV-1">
          <mxGeometry x="5932.5" y="447.5" width="160" height="40" as="geometry" />
        </mxCell>
        <mxCell id="lpf-UgZtvlRDL02pAS0L-435" style="edgeStyle=orthogonalEdgeStyle;rounded=0;orthogonalLoop=1;jettySize=auto;html=1;" edge="1" parent="WIyWlLk6GJQsqaUBKTNV-1" source="lpf-UgZtvlRDL02pAS0L-249" target="lpf-UgZtvlRDL02pAS0L-391">
          <mxGeometry relative="1" as="geometry" />
        </mxCell>
        <mxCell id="lpf-UgZtvlRDL02pAS0L-747" style="edgeStyle=orthogonalEdgeStyle;rounded=0;orthogonalLoop=1;jettySize=auto;html=1;entryX=1;entryY=0.5;entryDx=0;entryDy=0;" edge="1" parent="WIyWlLk6GJQsqaUBKTNV-1" source="lpf-UgZtvlRDL02pAS0L-249" target="lpf-UgZtvlRDL02pAS0L-744">
          <mxGeometry relative="1" as="geometry" />
        </mxCell>
        <mxCell id="lpf-UgZtvlRDL02pAS0L-249" value="REFINING PROCESS&amp;nbsp;" style="rounded=1;whiteSpace=wrap;html=1;fontSize=12;glass=0;strokeWidth=1;shadow=0;" vertex="1" parent="WIyWlLk6GJQsqaUBKTNV-1">
          <mxGeometry x="5932.5" y="770" width="160" height="40" as="geometry" />
        </mxCell>
        <mxCell id="lpf-UgZtvlRDL02pAS0L-285" style="edgeStyle=orthogonalEdgeStyle;rounded=0;orthogonalLoop=1;jettySize=auto;html=1;entryX=1;entryY=0.5;entryDx=0;entryDy=0;" edge="1" parent="WIyWlLk6GJQsqaUBKTNV-1" source="lpf-UgZtvlRDL02pAS0L-250" target="lpf-UgZtvlRDL02pAS0L-282">
          <mxGeometry relative="1" as="geometry" />
        </mxCell>
        <mxCell id="lpf-UgZtvlRDL02pAS0L-250" value="INFORM&amp;nbsp;&lt;br&gt;TO DOSM NEGERI&amp;nbsp;" style="rounded=1;whiteSpace=wrap;html=1;fontSize=12;glass=0;strokeWidth=1;shadow=0;" vertex="1" parent="WIyWlLk6GJQsqaUBKTNV-1">
          <mxGeometry x="5772.5" y="280" width="150" height="40" as="geometry" />
        </mxCell>
        <mxCell id="lpf-UgZtvlRDL02pAS0L-261" value="" style="group" vertex="1" connectable="0" parent="WIyWlLk6GJQsqaUBKTNV-1">
          <mxGeometry x="6400" y="435" width="55" height="88.88999999999999" as="geometry" />
        </mxCell>
        <mxCell id="lpf-UgZtvlRDL02pAS0L-262" value="" style="ellipse;whiteSpace=wrap;html=1;aspect=fixed;fillColor=#CCCCFF;" vertex="1" parent="lpf-UgZtvlRDL02pAS0L-261">
          <mxGeometry x="-30" y="10" width="50" height="50" as="geometry" />
        </mxCell>
        <mxCell id="lpf-UgZtvlRDL02pAS0L-263" value="&lt;font style=&quot;font-size: 18px;&quot;&gt;&lt;b&gt;DB2&lt;/b&gt;&lt;/font&gt;" style="text;html=1;strokeColor=none;fillColor=none;align=left;verticalAlign=middle;whiteSpace=wrap;rounded=0;" vertex="1" parent="lpf-UgZtvlRDL02pAS0L-261">
          <mxGeometry x="-25" y="20" width="50" height="30" as="geometry" />
        </mxCell>
        <mxCell id="lpf-UgZtvlRDL02pAS0L-270" style="edgeStyle=orthogonalEdgeStyle;rounded=0;orthogonalLoop=1;jettySize=auto;html=1;entryX=1;entryY=0.5;entryDx=0;entryDy=0;" edge="1" parent="WIyWlLk6GJQsqaUBKTNV-1" source="lpf-UgZtvlRDL02pAS0L-262" target="lpf-UgZtvlRDL02pAS0L-243">
          <mxGeometry relative="1" as="geometry" />
        </mxCell>
        <mxCell id="lpf-UgZtvlRDL02pAS0L-280" value="IND_STATUS ERROR REPORT&lt;br&gt;&amp;amp; ERROR DATA FILE" style="edgeLabel;html=1;align=center;verticalAlign=middle;resizable=0;points=[];" vertex="1" connectable="0" parent="lpf-UgZtvlRDL02pAS0L-270">
          <mxGeometry x="-0.0914" y="-4" relative="1" as="geometry">
            <mxPoint x="8" y="4" as="offset" />
          </mxGeometry>
        </mxCell>
        <mxCell id="lpf-UgZtvlRDL02pAS0L-252" value="" style="ellipse;whiteSpace=wrap;html=1;aspect=fixed;fillColor=#CCCCFF;" vertex="1" parent="WIyWlLk6GJQsqaUBKTNV-1">
          <mxGeometry x="5362.5" y="660" width="50" height="50" as="geometry" />
        </mxCell>
        <mxCell id="lpf-UgZtvlRDL02pAS0L-253" value="&lt;font style=&quot;font-size: 18px;&quot;&gt;&lt;b&gt;DB2&lt;/b&gt;&lt;/font&gt;" style="text;html=1;strokeColor=none;fillColor=none;align=left;verticalAlign=middle;whiteSpace=wrap;rounded=0;" vertex="1" parent="WIyWlLk6GJQsqaUBKTNV-1">
          <mxGeometry x="5367.5" y="670" width="42.5" height="30" as="geometry" />
        </mxCell>
        <mxCell id="lpf-UgZtvlRDL02pAS0L-281" value="AFTER DOSM NEGERI&lt;br&gt;UPDATE DATA IN EJOB&amp;nbsp;" style="edgeLabel;html=1;align=center;verticalAlign=middle;resizable=0;points=[];" vertex="1" connectable="0" parent="WIyWlLk6GJQsqaUBKTNV-1">
          <mxGeometry x="5702.5" y="279.9999999999998" as="geometry" />
        </mxCell>
        <mxCell id="lpf-UgZtvlRDL02pAS0L-284" style="edgeStyle=orthogonalEdgeStyle;rounded=0;orthogonalLoop=1;jettySize=auto;html=1;entryX=0.5;entryY=0;entryDx=0;entryDy=0;" edge="1" parent="WIyWlLk6GJQsqaUBKTNV-1" source="lpf-UgZtvlRDL02pAS0L-282" target="lpf-UgZtvlRDL02pAS0L-210">
          <mxGeometry relative="1" as="geometry" />
        </mxCell>
        <mxCell id="lpf-UgZtvlRDL02pAS0L-282" value="RE-RUN&amp;nbsp;&lt;br&gt;TRIGGER" style="rounded=1;whiteSpace=wrap;html=1;fontSize=12;glass=0;strokeWidth=1;shadow=0;" vertex="1" parent="WIyWlLk6GJQsqaUBKTNV-1">
          <mxGeometry x="5527.5" y="280" width="90" height="40" as="geometry" />
        </mxCell>
        <mxCell id="lpf-UgZtvlRDL02pAS0L-286" value="" style="ellipse;whiteSpace=wrap;html=1;aspect=fixed;fillColor=#CCCCFF;" vertex="1" parent="WIyWlLk6GJQsqaUBKTNV-1">
          <mxGeometry x="5360" y="442.5" width="50" height="50" as="geometry" />
        </mxCell>
        <mxCell id="lpf-UgZtvlRDL02pAS0L-287" value="&lt;font style=&quot;font-size: 18px;&quot;&gt;&lt;b&gt;DB3&lt;/b&gt;&lt;/font&gt;" style="text;html=1;strokeColor=none;fillColor=none;align=left;verticalAlign=middle;whiteSpace=wrap;rounded=0;" vertex="1" parent="WIyWlLk6GJQsqaUBKTNV-1">
          <mxGeometry x="5365" y="452.5" width="37.5" height="30" as="geometry" />
        </mxCell>
        <mxCell id="lpf-UgZtvlRDL02pAS0L-378" style="edgeStyle=orthogonalEdgeStyle;rounded=0;orthogonalLoop=1;jettySize=auto;html=1;entryX=0.5;entryY=0;entryDx=0;entryDy=0;" edge="1" parent="WIyWlLk6GJQsqaUBKTNV-1" source="lpf-UgZtvlRDL02pAS0L-377" target="lpf-UgZtvlRDL02pAS0L-249">
          <mxGeometry relative="1" as="geometry" />
        </mxCell>
        <mxCell id="lpf-UgZtvlRDL02pAS0L-377" value="IF RE-RUN&amp;nbsp;&lt;br style=&quot;border-color: var(--border-color);&quot;&gt;TRIGGER BUTTON X 3&amp;nbsp;" style="rounded=1;whiteSpace=wrap;html=1;fontSize=12;glass=0;strokeWidth=1;shadow=0;" vertex="1" parent="WIyWlLk6GJQsqaUBKTNV-1">
          <mxGeometry x="5932.5" y="680" width="160" height="40" as="geometry" />
        </mxCell>
        <mxCell id="lpf-UgZtvlRDL02pAS0L-382" value="" style="group" vertex="1" connectable="0" parent="WIyWlLk6GJQsqaUBKTNV-1">
          <mxGeometry x="6370" y="765" width="55" height="50" as="geometry" />
        </mxCell>
        <mxCell id="lpf-UgZtvlRDL02pAS0L-383" value="" style="ellipse;whiteSpace=wrap;html=1;aspect=fixed;fillColor=#CCCCFF;" vertex="1" parent="lpf-UgZtvlRDL02pAS0L-382">
          <mxGeometry width="50" height="50" as="geometry" />
        </mxCell>
        <mxCell id="lpf-UgZtvlRDL02pAS0L-384" value="&lt;font style=&quot;font-size: 18px;&quot;&gt;&lt;b&gt;DB1&lt;/b&gt;&lt;/font&gt;" style="text;html=1;strokeColor=none;fillColor=none;align=left;verticalAlign=middle;whiteSpace=wrap;rounded=0;" vertex="1" parent="lpf-UgZtvlRDL02pAS0L-382">
          <mxGeometry x="5" y="10" width="50" height="30" as="geometry" />
        </mxCell>
        <mxCell id="lpf-UgZtvlRDL02pAS0L-386" style="edgeStyle=orthogonalEdgeStyle;rounded=0;orthogonalLoop=1;jettySize=auto;html=1;entryX=1;entryY=0.5;entryDx=0;entryDy=0;" edge="1" parent="WIyWlLk6GJQsqaUBKTNV-1" source="lpf-UgZtvlRDL02pAS0L-384" target="lpf-UgZtvlRDL02pAS0L-249">
          <mxGeometry relative="1" as="geometry" />
        </mxCell>
        <mxCell id="lpf-UgZtvlRDL02pAS0L-387" value="PULL LATEST&lt;br&gt;VX FRD FILES Q1 2023&amp;nbsp;" style="edgeLabel;html=1;align=center;verticalAlign=middle;resizable=0;points=[];" vertex="1" connectable="0" parent="lpf-UgZtvlRDL02pAS0L-386">
          <mxGeometry x="0.0198" y="-3" relative="1" as="geometry">
            <mxPoint x="-11" y="-2" as="offset" />
          </mxGeometry>
        </mxCell>
        <mxCell id="lpf-UgZtvlRDL02pAS0L-787" style="edgeStyle=orthogonalEdgeStyle;rounded=0;orthogonalLoop=1;jettySize=auto;html=1;entryX=0.5;entryY=0;entryDx=0;entryDy=0;" edge="1" parent="WIyWlLk6GJQsqaUBKTNV-1" source="lpf-UgZtvlRDL02pAS0L-388" target="lpf-UgZtvlRDL02pAS0L-553">
          <mxGeometry relative="1" as="geometry" />
        </mxCell>
        <mxCell id="lpf-UgZtvlRDL02pAS0L-388" value="WORKING FILES&amp;nbsp;" style="rounded=1;whiteSpace=wrap;html=1;fontSize=12;glass=0;strokeWidth=1;shadow=0;" vertex="1" parent="WIyWlLk6GJQsqaUBKTNV-1">
          <mxGeometry x="5612.5" y="917.5" width="160" height="40" as="geometry" />
        </mxCell>
        <mxCell id="lpf-UgZtvlRDL02pAS0L-424" style="edgeStyle=orthogonalEdgeStyle;rounded=0;orthogonalLoop=1;jettySize=auto;html=1;entryX=0.5;entryY=0;entryDx=0;entryDy=0;" edge="1" parent="WIyWlLk6GJQsqaUBKTNV-1" source="lpf-UgZtvlRDL02pAS0L-391" target="lpf-UgZtvlRDL02pAS0L-416">
          <mxGeometry relative="1" as="geometry" />
        </mxCell>
        <mxCell id="lpf-UgZtvlRDL02pAS0L-391" value="MERGING" style="rounded=1;whiteSpace=wrap;html=1;fontSize=12;glass=0;strokeWidth=1;shadow=0;" vertex="1" parent="WIyWlLk6GJQsqaUBKTNV-1">
          <mxGeometry x="5932.5" y="900" width="160" height="40" as="geometry" />
        </mxCell>
        <mxCell id="lpf-UgZtvlRDL02pAS0L-394" value="" style="ellipse;whiteSpace=wrap;html=1;aspect=fixed;fillColor=#CCCCFF;" vertex="1" parent="WIyWlLk6GJQsqaUBKTNV-1">
          <mxGeometry x="5362.5" y="725" width="50" height="50" as="geometry" />
        </mxCell>
        <mxCell id="lpf-UgZtvlRDL02pAS0L-395" value="&lt;font style=&quot;font-size: 18px;&quot;&gt;&lt;b&gt;DB2&lt;br&gt;A&lt;/b&gt;&lt;/font&gt;" style="text;html=1;strokeColor=none;fillColor=none;align=center;verticalAlign=middle;whiteSpace=wrap;rounded=0;" vertex="1" parent="WIyWlLk6GJQsqaUBKTNV-1">
          <mxGeometry x="5366.25" y="740" width="42.5" height="30" as="geometry" />
        </mxCell>
        <mxCell id="lpf-UgZtvlRDL02pAS0L-402" value="" style="group" vertex="1" connectable="0" parent="WIyWlLk6GJQsqaUBKTNV-1">
          <mxGeometry x="6369.53" y="895" width="55" height="50" as="geometry" />
        </mxCell>
        <mxCell id="lpf-UgZtvlRDL02pAS0L-403" value="" style="ellipse;whiteSpace=wrap;html=1;aspect=fixed;fillColor=#CCCCFF;" vertex="1" parent="lpf-UgZtvlRDL02pAS0L-402">
          <mxGeometry width="50" height="50" as="geometry" />
        </mxCell>
        <mxCell id="lpf-UgZtvlRDL02pAS0L-404" value="&lt;font style=&quot;font-size: 18px;&quot;&gt;&lt;b&gt;DB4&lt;/b&gt;&lt;/font&gt;" style="text;html=1;strokeColor=none;fillColor=none;align=left;verticalAlign=middle;whiteSpace=wrap;rounded=0;" vertex="1" parent="lpf-UgZtvlRDL02pAS0L-402">
          <mxGeometry x="5" y="10" width="50" height="30" as="geometry" />
        </mxCell>
        <mxCell id="lpf-UgZtvlRDL02pAS0L-406" value="" style="group" vertex="1" connectable="0" parent="WIyWlLk6GJQsqaUBKTNV-1">
          <mxGeometry x="6369.53" y="955" width="55" height="50" as="geometry" />
        </mxCell>
        <mxCell id="lpf-UgZtvlRDL02pAS0L-407" value="" style="ellipse;whiteSpace=wrap;html=1;aspect=fixed;fillColor=#CCCCFF;" vertex="1" parent="lpf-UgZtvlRDL02pAS0L-406">
          <mxGeometry width="50" height="50" as="geometry" />
        </mxCell>
        <mxCell id="lpf-UgZtvlRDL02pAS0L-408" value="&lt;font style=&quot;font-size: 18px;&quot;&gt;&lt;b&gt;DB5&lt;/b&gt;&lt;/font&gt;" style="text;html=1;strokeColor=none;fillColor=none;align=left;verticalAlign=middle;whiteSpace=wrap;rounded=0;" vertex="1" parent="lpf-UgZtvlRDL02pAS0L-406">
          <mxGeometry x="5" y="10" width="50" height="30" as="geometry" />
        </mxCell>
        <mxCell id="lpf-UgZtvlRDL02pAS0L-410" style="edgeStyle=orthogonalEdgeStyle;rounded=0;orthogonalLoop=1;jettySize=auto;html=1;entryX=1;entryY=0.5;entryDx=0;entryDy=0;" edge="1" parent="WIyWlLk6GJQsqaUBKTNV-1" source="lpf-UgZtvlRDL02pAS0L-404" target="lpf-UgZtvlRDL02pAS0L-391">
          <mxGeometry relative="1" as="geometry" />
        </mxCell>
        <mxCell id="lpf-UgZtvlRDL02pAS0L-411" value="PULL 12 PAST QUARTER&amp;nbsp;&lt;br style=&quot;border-color: var(--border-color);&quot;&gt;FINAL DATA&amp;nbsp;" style="edgeLabel;html=1;align=center;verticalAlign=middle;resizable=0;points=[];" vertex="1" connectable="0" parent="lpf-UgZtvlRDL02pAS0L-410">
          <mxGeometry x="-0.054" y="5" relative="1" as="geometry">
            <mxPoint x="-2" y="-5" as="offset" />
          </mxGeometry>
        </mxCell>
        <mxCell id="lpf-UgZtvlRDL02pAS0L-413" style="edgeStyle=orthogonalEdgeStyle;rounded=0;orthogonalLoop=1;jettySize=auto;html=1;entryX=1;entryY=0.5;entryDx=0;entryDy=0;" edge="1" parent="WIyWlLk6GJQsqaUBKTNV-1" source="lpf-UgZtvlRDL02pAS0L-408" target="lpf-UgZtvlRDL02pAS0L-391">
          <mxGeometry relative="1" as="geometry">
            <Array as="points">
              <mxPoint x="6140" y="980" />
              <mxPoint x="6140" y="920" />
            </Array>
          </mxGeometry>
        </mxCell>
        <mxCell id="lpf-UgZtvlRDL02pAS0L-414" value="PULL 5 PAST QUARTER&amp;nbsp;&lt;br style=&quot;border-color: var(--border-color);&quot;&gt;FINAL RAW DATA&amp;nbsp;" style="edgeLabel;html=1;align=center;verticalAlign=middle;resizable=0;points=[];" vertex="1" connectable="0" parent="lpf-UgZtvlRDL02pAS0L-413">
          <mxGeometry x="-0.3644" relative="1" as="geometry">
            <mxPoint x="-26" as="offset" />
          </mxGeometry>
        </mxCell>
        <mxCell id="lpf-UgZtvlRDL02pAS0L-423" style="edgeStyle=orthogonalEdgeStyle;rounded=0;orthogonalLoop=1;jettySize=auto;html=1;entryX=0;entryY=0.5;entryDx=0;entryDy=0;" edge="1" parent="WIyWlLk6GJQsqaUBKTNV-1" source="lpf-UgZtvlRDL02pAS0L-416" target="lpf-UgZtvlRDL02pAS0L-420">
          <mxGeometry relative="1" as="geometry" />
        </mxCell>
        <mxCell id="lpf-UgZtvlRDL02pAS0L-434" value="STORE TIME SERIES &lt;br&gt;GENERATED INTO DB&amp;nbsp;" style="edgeLabel;html=1;align=center;verticalAlign=middle;resizable=0;points=[];" vertex="1" connectable="0" parent="lpf-UgZtvlRDL02pAS0L-423">
          <mxGeometry x="0.0637" relative="1" as="geometry">
            <mxPoint x="-7" y="-6" as="offset" />
          </mxGeometry>
        </mxCell>
        <mxCell id="lpf-UgZtvlRDL02pAS0L-770" style="edgeStyle=orthogonalEdgeStyle;rounded=0;orthogonalLoop=1;jettySize=auto;html=1;" edge="1" parent="WIyWlLk6GJQsqaUBKTNV-1" source="lpf-UgZtvlRDL02pAS0L-416" target="lpf-UgZtvlRDL02pAS0L-768">
          <mxGeometry relative="1" as="geometry" />
        </mxCell>
        <mxCell id="lpf-UgZtvlRDL02pAS0L-416" value="RENAME AND REPOSITION INTO TIMESERIES" style="rounded=1;whiteSpace=wrap;html=1;fontSize=12;glass=0;strokeWidth=1;shadow=0;" vertex="1" parent="WIyWlLk6GJQsqaUBKTNV-1">
          <mxGeometry x="5928.75" y="995" width="167.5" height="40" as="geometry" />
        </mxCell>
        <mxCell id="lpf-UgZtvlRDL02pAS0L-425" value="" style="group" vertex="1" connectable="0" parent="WIyWlLk6GJQsqaUBKTNV-1">
          <mxGeometry x="6399.27" y="505" width="55" height="88.88999999999999" as="geometry" />
        </mxCell>
        <mxCell id="lpf-UgZtvlRDL02pAS0L-426" value="" style="ellipse;whiteSpace=wrap;html=1;aspect=fixed;fillColor=#CCCCFF;" vertex="1" parent="lpf-UgZtvlRDL02pAS0L-425">
          <mxGeometry x="-30" y="10" width="50" height="50" as="geometry" />
        </mxCell>
        <mxCell id="lpf-UgZtvlRDL02pAS0L-427" value="&lt;div style=&quot;text-align: center;&quot;&gt;&lt;b style=&quot;font-size: 18px; background-color: initial;&quot;&gt;DB2&lt;/b&gt;&lt;/div&gt;&lt;font style=&quot;font-size: 18px;&quot;&gt;&lt;div style=&quot;text-align: center;&quot;&gt;&lt;b style=&quot;background-color: initial;&quot;&gt;A&lt;/b&gt;&lt;/div&gt;&lt;/font&gt;" style="text;html=1;strokeColor=none;fillColor=none;align=left;verticalAlign=middle;whiteSpace=wrap;rounded=0;" vertex="1" parent="lpf-UgZtvlRDL02pAS0L-425">
          <mxGeometry x="-25" y="20" width="50" height="30" as="geometry" />
        </mxCell>
        <mxCell id="lpf-UgZtvlRDL02pAS0L-429" style="edgeStyle=orthogonalEdgeStyle;rounded=0;orthogonalLoop=1;jettySize=auto;html=1;entryX=1;entryY=0.75;entryDx=0;entryDy=0;" edge="1" parent="WIyWlLk6GJQsqaUBKTNV-1" source="lpf-UgZtvlRDL02pAS0L-427" target="lpf-UgZtvlRDL02pAS0L-243">
          <mxGeometry relative="1" as="geometry">
            <Array as="points">
              <mxPoint x="6140" y="539.5" />
              <mxPoint x="6140" y="477.5" />
            </Array>
          </mxGeometry>
        </mxCell>
        <mxCell id="lpf-UgZtvlRDL02pAS0L-431" value="REPORT TABLE&amp;nbsp;" style="edgeLabel;html=1;align=center;verticalAlign=middle;resizable=0;points=[];" vertex="1" connectable="0" parent="lpf-UgZtvlRDL02pAS0L-429">
          <mxGeometry x="-0.1227" y="3" relative="1" as="geometry">
            <mxPoint x="37" y="-3" as="offset" />
          </mxGeometry>
        </mxCell>
        <mxCell id="lpf-UgZtvlRDL02pAS0L-462" style="edgeStyle=orthogonalEdgeStyle;rounded=0;orthogonalLoop=1;jettySize=auto;html=1;entryX=0;entryY=0.5;entryDx=0;entryDy=0;" edge="1" parent="WIyWlLk6GJQsqaUBKTNV-1" source="lpf-UgZtvlRDL02pAS0L-436">
          <mxGeometry relative="1" as="geometry">
            <mxPoint x="6369.530000000212" y="1256.5" as="targetPoint" />
            <Array as="points">
              <mxPoint x="6140" y="1316.5" />
              <mxPoint x="6140" y="1256.5" />
            </Array>
          </mxGeometry>
        </mxCell>
        <mxCell id="lpf-UgZtvlRDL02pAS0L-464" value="STORE &amp;amp; REPLACE &lt;br&gt;LATEST VERSION&amp;nbsp;&lt;br&gt;OF FINAL DATA&amp;nbsp;" style="edgeLabel;html=1;align=center;verticalAlign=middle;resizable=0;points=[];" vertex="1" connectable="0" parent="lpf-UgZtvlRDL02pAS0L-462">
          <mxGeometry x="0.1298" y="1" relative="1" as="geometry">
            <mxPoint x="28" y="1" as="offset" />
          </mxGeometry>
        </mxCell>
        <mxCell id="lpf-UgZtvlRDL02pAS0L-463" style="edgeStyle=orthogonalEdgeStyle;rounded=0;orthogonalLoop=1;jettySize=auto;html=1;entryX=0;entryY=0.5;entryDx=0;entryDy=0;" edge="1" parent="WIyWlLk6GJQsqaUBKTNV-1" source="lpf-UgZtvlRDL02pAS0L-436" target="lpf-UgZtvlRDL02pAS0L-458">
          <mxGeometry relative="1" as="geometry" />
        </mxCell>
        <mxCell id="lpf-UgZtvlRDL02pAS0L-465" value="STORE &amp;amp; REPLACE &lt;br&gt;LATEST VERSION&amp;nbsp;&lt;br style=&quot;border-color: var(--border-color);&quot;&gt;OF FINAL RAW DATA&amp;nbsp;" style="edgeLabel;html=1;align=center;verticalAlign=middle;resizable=0;points=[];" vertex="1" connectable="0" parent="lpf-UgZtvlRDL02pAS0L-463">
          <mxGeometry x="-0.1609" y="-3" relative="1" as="geometry">
            <mxPoint x="42" y="-3" as="offset" />
          </mxGeometry>
        </mxCell>
        <mxCell id="lpf-UgZtvlRDL02pAS0L-678" style="edgeStyle=orthogonalEdgeStyle;rounded=0;orthogonalLoop=1;jettySize=auto;html=1;entryX=0;entryY=0.5;entryDx=0;entryDy=0;" edge="1" parent="WIyWlLk6GJQsqaUBKTNV-1" source="lpf-UgZtvlRDL02pAS0L-436" target="lpf-UgZtvlRDL02pAS0L-677">
          <mxGeometry relative="1" as="geometry">
            <Array as="points">
              <mxPoint x="6140" y="1316.5" />
              <mxPoint x="6140" y="1386.5" />
            </Array>
          </mxGeometry>
        </mxCell>
        <mxCell id="lpf-UgZtvlRDL02pAS0L-679" value="STORE &amp;amp; REPLACE&lt;br&gt;CURRENT WORKING&amp;nbsp;&lt;br&gt;FINAL RAW DATA" style="edgeLabel;html=1;align=center;verticalAlign=middle;resizable=0;points=[];" vertex="1" connectable="0" parent="lpf-UgZtvlRDL02pAS0L-678">
          <mxGeometry x="0.3151" y="-3" relative="1" as="geometry">
            <mxPoint x="-4" y="-4" as="offset" />
          </mxGeometry>
        </mxCell>
        <mxCell id="lpf-UgZtvlRDL02pAS0L-436" value="EXPLODE TIMESERIES&amp;nbsp;&lt;br&gt;BY QUARTERLY &amp;amp; YEAR" style="rounded=1;whiteSpace=wrap;html=1;fontSize=12;glass=0;strokeWidth=1;shadow=0;" vertex="1" parent="WIyWlLk6GJQsqaUBKTNV-1">
          <mxGeometry x="5932.5" y="1296.5" width="160" height="40" as="geometry" />
        </mxCell>
        <mxCell id="lpf-UgZtvlRDL02pAS0L-454" value="" style="group" vertex="1" connectable="0" parent="WIyWlLk6GJQsqaUBKTNV-1">
          <mxGeometry x="6369.53" y="1042.5" width="57.970000000000255" height="50" as="geometry" />
        </mxCell>
        <mxCell id="lpf-UgZtvlRDL02pAS0L-456" value="&lt;font style=&quot;font-size: 18px;&quot;&gt;&lt;b&gt;DB4&lt;/b&gt;&lt;/font&gt;" style="text;html=1;strokeColor=none;fillColor=none;align=left;verticalAlign=middle;whiteSpace=wrap;rounded=0;" vertex="1" parent="lpf-UgZtvlRDL02pAS0L-454">
          <mxGeometry x="5.000000000000001" y="199" width="50" height="30" as="geometry" />
        </mxCell>
        <mxCell id="lpf-UgZtvlRDL02pAS0L-418" value="" style="group" vertex="1" connectable="0" parent="lpf-UgZtvlRDL02pAS0L-454">
          <mxGeometry x="2.9700000000002547" y="-25" width="55" height="50" as="geometry" />
        </mxCell>
        <mxCell id="lpf-UgZtvlRDL02pAS0L-419" value="" style="ellipse;whiteSpace=wrap;html=1;aspect=fixed;fillColor=#CCCCFF;" vertex="1" parent="lpf-UgZtvlRDL02pAS0L-418">
          <mxGeometry width="50" height="50" as="geometry" />
        </mxCell>
        <mxCell id="lpf-UgZtvlRDL02pAS0L-420" value="&lt;font style=&quot;font-size: 18px;&quot;&gt;&lt;b&gt;DB7&lt;/b&gt;&lt;/font&gt;" style="text;html=1;strokeColor=none;fillColor=none;align=left;verticalAlign=middle;whiteSpace=wrap;rounded=0;" vertex="1" parent="lpf-UgZtvlRDL02pAS0L-418">
          <mxGeometry x="5" y="10" width="45" height="30" as="geometry" />
        </mxCell>
        <mxCell id="lpf-UgZtvlRDL02pAS0L-457" value="" style="group" vertex="1" connectable="0" parent="WIyWlLk6GJQsqaUBKTNV-1">
          <mxGeometry x="6369.53" y="1291.5" width="55" height="50" as="geometry" />
        </mxCell>
        <mxCell id="lpf-UgZtvlRDL02pAS0L-458" value="" style="ellipse;whiteSpace=wrap;html=1;aspect=fixed;fillColor=#CCCCFF;" vertex="1" parent="lpf-UgZtvlRDL02pAS0L-457">
          <mxGeometry width="50" height="50" as="geometry" />
        </mxCell>
        <mxCell id="lpf-UgZtvlRDL02pAS0L-459" value="&lt;font style=&quot;font-size: 18px;&quot;&gt;&lt;b&gt;DB5&lt;/b&gt;&lt;/font&gt;" style="text;html=1;strokeColor=none;fillColor=none;align=left;verticalAlign=middle;whiteSpace=wrap;rounded=0;" vertex="1" parent="lpf-UgZtvlRDL02pAS0L-457">
          <mxGeometry x="5" y="10" width="50" height="30" as="geometry" />
        </mxCell>
        <mxCell id="lpf-UgZtvlRDL02pAS0L-501" value="" style="group" vertex="1" connectable="0" parent="WIyWlLk6GJQsqaUBKTNV-1">
          <mxGeometry x="4810" y="532.5" width="457" height="160" as="geometry" />
        </mxCell>
        <mxCell id="lpf-UgZtvlRDL02pAS0L-498" value="" style="group" vertex="1" connectable="0" parent="lpf-UgZtvlRDL02pAS0L-501">
          <mxGeometry x="330" width="127" height="58.889999999999986" as="geometry" />
        </mxCell>
        <mxCell id="lpf-UgZtvlRDL02pAS0L-499" value="" style="shape=image;verticalLabelPosition=bottom;labelBackgroundColor=default;verticalAlign=top;aspect=fixed;imageAspect=0;image=https://cdn.icon-icons.com/icons2/2699/PNG/512/postgresql_vertical_logo_icon_168900.png;" vertex="1" parent="lpf-UgZtvlRDL02pAS0L-498">
          <mxGeometry x="60" width="67" height="58.89" as="geometry" />
        </mxCell>
        <mxCell id="lpf-UgZtvlRDL02pAS0L-476" value="" style="rounded=1;whiteSpace=wrap;html=1;" vertex="1" parent="lpf-UgZtvlRDL02pAS0L-501">
          <mxGeometry y="55" width="400" height="105" as="geometry" />
        </mxCell>
        <mxCell id="lpf-UgZtvlRDL02pAS0L-477" value="&lt;div style=&quot;&quot;&gt;&lt;b&gt;INDIVIDUAL_STATUS ERROR - FINAL RAW DATA&amp;nbsp;&lt;/b&gt;&lt;/div&gt;&lt;div style=&quot;&quot;&gt;&lt;b&gt;FOR REPORTING USER ON ERROR AVAILABLE IN&amp;nbsp;&lt;/b&gt;&lt;/div&gt;&lt;div style=&quot;&quot;&gt;&lt;b&gt;RAW DATA PROVIDED&lt;/b&gt;&lt;/div&gt;" style="text;html=1;strokeColor=none;fillColor=none;align=left;verticalAlign=middle;whiteSpace=wrap;rounded=0;" vertex="1" parent="lpf-UgZtvlRDL02pAS0L-501">
          <mxGeometry x="10" y="5" width="330" height="50" as="geometry" />
        </mxCell>
        <mxCell id="lpf-UgZtvlRDL02pAS0L-478" style="edgeStyle=orthogonalEdgeStyle;rounded=0;orthogonalLoop=1;jettySize=auto;html=1;exitX=0.5;exitY=1;exitDx=0;exitDy=0;" edge="1" parent="lpf-UgZtvlRDL02pAS0L-501">
          <mxGeometry relative="1" as="geometry">
            <mxPoint x="70" y="157.5" as="sourcePoint" />
            <mxPoint x="70" y="157.5" as="targetPoint" />
          </mxGeometry>
        </mxCell>
        <mxCell id="lpf-UgZtvlRDL02pAS0L-481" style="edgeStyle=orthogonalEdgeStyle;rounded=0;orthogonalLoop=1;jettySize=auto;html=1;exitX=0.5;exitY=1;exitDx=0;exitDy=0;" edge="1" parent="lpf-UgZtvlRDL02pAS0L-501">
          <mxGeometry relative="1" as="geometry">
            <mxPoint x="70" y="127.5" as="sourcePoint" />
            <mxPoint x="70" y="127.5" as="targetPoint" />
          </mxGeometry>
        </mxCell>
        <mxCell id="lpf-UgZtvlRDL02pAS0L-491" value="ERROR_FINAL_RAW_DATA&lt;br&gt;Q1_2023_Vx" style="rounded=1;whiteSpace=wrap;html=1;fontSize=12;glass=0;strokeWidth=1;shadow=0;" vertex="1" parent="lpf-UgZtvlRDL02pAS0L-501">
          <mxGeometry x="100" y="107.5" width="200" height="32.5" as="geometry" />
        </mxCell>
        <mxCell id="lpf-UgZtvlRDL02pAS0L-494" value="&lt;b&gt;FRD_ERROR_ DATA_SCHEMA&lt;/b&gt;" style="rounded=1;whiteSpace=wrap;html=1;arcSize=50;" vertex="1" parent="lpf-UgZtvlRDL02pAS0L-501">
          <mxGeometry x="100" y="72.5" width="200" height="20" as="geometry" />
        </mxCell>
        <mxCell id="lpf-UgZtvlRDL02pAS0L-495" value="" style="group" vertex="1" connectable="0" parent="lpf-UgZtvlRDL02pAS0L-501">
          <mxGeometry x="335" width="55" height="50" as="geometry" />
        </mxCell>
        <mxCell id="lpf-UgZtvlRDL02pAS0L-496" value="" style="ellipse;whiteSpace=wrap;html=1;aspect=fixed;fillColor=#CCCCFF;" vertex="1" parent="lpf-UgZtvlRDL02pAS0L-495">
          <mxGeometry width="50" height="50" as="geometry" />
        </mxCell>
        <mxCell id="lpf-UgZtvlRDL02pAS0L-497" value="&lt;font style=&quot;font-size: 18px;&quot;&gt;&lt;b&gt;DB2&lt;/b&gt;&lt;/font&gt;" style="text;html=1;strokeColor=none;fillColor=none;align=left;verticalAlign=middle;whiteSpace=wrap;rounded=0;" vertex="1" parent="lpf-UgZtvlRDL02pAS0L-495">
          <mxGeometry x="5" y="10" width="45" height="30" as="geometry" />
        </mxCell>
        <mxCell id="lpf-UgZtvlRDL02pAS0L-502" style="edgeStyle=orthogonalEdgeStyle;rounded=0;orthogonalLoop=1;jettySize=auto;html=1;entryX=0.5;entryY=1;entryDx=0;entryDy=0;" edge="1" parent="WIyWlLk6GJQsqaUBKTNV-1" source="lpf-UgZtvlRDL02pAS0L-476" target="lpf-UgZtvlRDL02pAS0L-232">
          <mxGeometry relative="1" as="geometry" />
        </mxCell>
        <mxCell id="lpf-UgZtvlRDL02pAS0L-503" value="REDUNDANT VERSION &amp;amp;&amp;nbsp;&lt;br style=&quot;border-color: var(--border-color); background-color: rgb(251, 251, 251);&quot;&gt;MAINTAIN MAX 1 QUARTER&amp;nbsp;" style="edgeLabel;html=1;align=center;verticalAlign=middle;resizable=0;points=[];" vertex="1" connectable="0" parent="lpf-UgZtvlRDL02pAS0L-502">
          <mxGeometry x="-0.3281" y="1" relative="1" as="geometry">
            <mxPoint as="offset" />
          </mxGeometry>
        </mxCell>
        <mxCell id="lpf-UgZtvlRDL02pAS0L-504" value="" style="group" vertex="1" connectable="0" parent="WIyWlLk6GJQsqaUBKTNV-1">
          <mxGeometry x="4810" y="702.5" width="457" height="160" as="geometry" />
        </mxCell>
        <mxCell id="lpf-UgZtvlRDL02pAS0L-505" value="" style="group" vertex="1" connectable="0" parent="lpf-UgZtvlRDL02pAS0L-504">
          <mxGeometry x="330" width="127" height="58.889999999999986" as="geometry" />
        </mxCell>
        <mxCell id="lpf-UgZtvlRDL02pAS0L-506" value="" style="shape=image;verticalLabelPosition=bottom;labelBackgroundColor=default;verticalAlign=top;aspect=fixed;imageAspect=0;image=https://cdn.icon-icons.com/icons2/2699/PNG/512/postgresql_vertical_logo_icon_168900.png;" vertex="1" parent="lpf-UgZtvlRDL02pAS0L-505">
          <mxGeometry x="60" width="67" height="58.89" as="geometry" />
        </mxCell>
        <mxCell id="lpf-UgZtvlRDL02pAS0L-516" style="edgeStyle=orthogonalEdgeStyle;rounded=0;orthogonalLoop=1;jettySize=auto;html=1;" edge="1" parent="lpf-UgZtvlRDL02pAS0L-504" source="lpf-UgZtvlRDL02pAS0L-507">
          <mxGeometry relative="1" as="geometry">
            <mxPoint x="-310" y="-240" as="targetPoint" />
          </mxGeometry>
        </mxCell>
        <mxCell id="lpf-UgZtvlRDL02pAS0L-518" value="REDUNDANT VERSION &amp;amp;&amp;nbsp;&lt;br style=&quot;border-color: var(--border-color); background-color: rgb(251, 251, 251);&quot;&gt;MAINTAIN MAX 1 QUARTER&amp;nbsp;" style="edgeLabel;html=1;align=center;verticalAlign=middle;resizable=0;points=[];" vertex="1" connectable="0" parent="lpf-UgZtvlRDL02pAS0L-516">
          <mxGeometry x="-0.5327" y="-2" relative="1" as="geometry">
            <mxPoint x="-6" y="2" as="offset" />
          </mxGeometry>
        </mxCell>
        <mxCell id="lpf-UgZtvlRDL02pAS0L-507" value="" style="rounded=1;whiteSpace=wrap;html=1;" vertex="1" parent="lpf-UgZtvlRDL02pAS0L-504">
          <mxGeometry y="55" width="400" height="105" as="geometry" />
        </mxCell>
        <mxCell id="lpf-UgZtvlRDL02pAS0L-508" value="&lt;div style=&quot;&quot;&gt;&lt;b&gt;INDIVIDUAL_STATUS ERROR - REPORT TABLE&amp;nbsp;&lt;/b&gt;&lt;/div&gt;&lt;div style=&quot;&quot;&gt;&lt;b&gt;FOR REPORTING USER ON ERROR&lt;/b&gt;&lt;/div&gt;" style="text;html=1;strokeColor=none;fillColor=none;align=left;verticalAlign=middle;whiteSpace=wrap;rounded=0;" vertex="1" parent="lpf-UgZtvlRDL02pAS0L-504">
          <mxGeometry x="10" y="8.89" width="330" height="50" as="geometry" />
        </mxCell>
        <mxCell id="lpf-UgZtvlRDL02pAS0L-509" style="edgeStyle=orthogonalEdgeStyle;rounded=0;orthogonalLoop=1;jettySize=auto;html=1;exitX=0.5;exitY=1;exitDx=0;exitDy=0;" edge="1" parent="lpf-UgZtvlRDL02pAS0L-504">
          <mxGeometry relative="1" as="geometry">
            <mxPoint x="70" y="157.5" as="sourcePoint" />
            <mxPoint x="70" y="157.5" as="targetPoint" />
          </mxGeometry>
        </mxCell>
        <mxCell id="lpf-UgZtvlRDL02pAS0L-510" style="edgeStyle=orthogonalEdgeStyle;rounded=0;orthogonalLoop=1;jettySize=auto;html=1;exitX=0.5;exitY=1;exitDx=0;exitDy=0;" edge="1" parent="lpf-UgZtvlRDL02pAS0L-504">
          <mxGeometry relative="1" as="geometry">
            <mxPoint x="70" y="127.5" as="sourcePoint" />
            <mxPoint x="70" y="127.5" as="targetPoint" />
          </mxGeometry>
        </mxCell>
        <mxCell id="lpf-UgZtvlRDL02pAS0L-511" value="ERROR_REPORT_TABLE&lt;br&gt;Q1_2023_Vx" style="rounded=1;whiteSpace=wrap;html=1;fontSize=12;glass=0;strokeWidth=1;shadow=0;" vertex="1" parent="lpf-UgZtvlRDL02pAS0L-504">
          <mxGeometry x="70" y="107.5" width="260" height="32.5" as="geometry" />
        </mxCell>
        <mxCell id="lpf-UgZtvlRDL02pAS0L-512" value="&lt;b&gt;FRD_ERROR_REPORT_TABLE_SCHEMA&lt;/b&gt;" style="rounded=1;whiteSpace=wrap;html=1;" vertex="1" parent="lpf-UgZtvlRDL02pAS0L-504">
          <mxGeometry x="70" y="72.5" width="260" height="20" as="geometry" />
        </mxCell>
        <mxCell id="lpf-UgZtvlRDL02pAS0L-513" value="" style="group" vertex="1" connectable="0" parent="lpf-UgZtvlRDL02pAS0L-504">
          <mxGeometry x="335" width="55" height="50" as="geometry" />
        </mxCell>
        <mxCell id="lpf-UgZtvlRDL02pAS0L-514" value="" style="ellipse;whiteSpace=wrap;html=1;aspect=fixed;fillColor=#CCCCFF;" vertex="1" parent="lpf-UgZtvlRDL02pAS0L-513">
          <mxGeometry width="50" height="50" as="geometry" />
        </mxCell>
        <mxCell id="lpf-UgZtvlRDL02pAS0L-515" value="&lt;div style=&quot;text-align: center;&quot;&gt;&lt;b style=&quot;font-size: 18px; background-color: initial;&quot;&gt;DB2&lt;/b&gt;&lt;/div&gt;&lt;font style=&quot;font-size: 18px;&quot;&gt;&lt;div style=&quot;text-align: center;&quot;&gt;&lt;b style=&quot;background-color: initial;&quot;&gt;A&lt;/b&gt;&lt;/div&gt;&lt;/font&gt;" style="text;html=1;strokeColor=none;fillColor=none;align=left;verticalAlign=middle;whiteSpace=wrap;rounded=0;" vertex="1" parent="lpf-UgZtvlRDL02pAS0L-513">
          <mxGeometry x="5" y="10" width="45" height="30" as="geometry" />
        </mxCell>
        <mxCell id="lpf-UgZtvlRDL02pAS0L-519" value="" style="group" vertex="1" connectable="0" parent="WIyWlLk6GJQsqaUBKTNV-1">
          <mxGeometry x="4810" y="872.5" width="457" height="160" as="geometry" />
        </mxCell>
        <mxCell id="lpf-UgZtvlRDL02pAS0L-520" value="" style="group" vertex="1" connectable="0" parent="lpf-UgZtvlRDL02pAS0L-519">
          <mxGeometry x="330" width="127" height="58.889999999999986" as="geometry" />
        </mxCell>
        <mxCell id="lpf-UgZtvlRDL02pAS0L-521" value="" style="shape=image;verticalLabelPosition=bottom;labelBackgroundColor=default;verticalAlign=top;aspect=fixed;imageAspect=0;image=https://cdn.icon-icons.com/icons2/2699/PNG/512/postgresql_vertical_logo_icon_168900.png;" vertex="1" parent="lpf-UgZtvlRDL02pAS0L-520">
          <mxGeometry x="60" width="67" height="58.89" as="geometry" />
        </mxCell>
        <mxCell id="lpf-UgZtvlRDL02pAS0L-524" value="" style="rounded=1;whiteSpace=wrap;html=1;" vertex="1" parent="lpf-UgZtvlRDL02pAS0L-519">
          <mxGeometry y="55" width="400" height="105" as="geometry" />
        </mxCell>
        <mxCell id="lpf-UgZtvlRDL02pAS0L-525" value="&lt;div style=&quot;&quot;&gt;&lt;b&gt;RAW_DATA_SGTGU_FROM_EJOB ACCESS DATABASE&lt;/b&gt;&lt;/div&gt;&lt;div style=&quot;&quot;&gt;&lt;b&gt;FOR PROCESSING&amp;nbsp;&lt;/b&gt;&lt;/div&gt;" style="text;html=1;strokeColor=none;fillColor=none;align=left;verticalAlign=middle;whiteSpace=wrap;rounded=0;" vertex="1" parent="lpf-UgZtvlRDL02pAS0L-519">
          <mxGeometry x="10" y="8.89" width="330" height="50" as="geometry" />
        </mxCell>
        <mxCell id="lpf-UgZtvlRDL02pAS0L-526" style="edgeStyle=orthogonalEdgeStyle;rounded=0;orthogonalLoop=1;jettySize=auto;html=1;exitX=0.5;exitY=1;exitDx=0;exitDy=0;" edge="1" parent="lpf-UgZtvlRDL02pAS0L-519">
          <mxGeometry relative="1" as="geometry">
            <mxPoint x="70" y="157.5" as="sourcePoint" />
            <mxPoint x="70" y="157.5" as="targetPoint" />
          </mxGeometry>
        </mxCell>
        <mxCell id="lpf-UgZtvlRDL02pAS0L-527" style="edgeStyle=orthogonalEdgeStyle;rounded=0;orthogonalLoop=1;jettySize=auto;html=1;exitX=0.5;exitY=1;exitDx=0;exitDy=0;" edge="1" parent="lpf-UgZtvlRDL02pAS0L-519">
          <mxGeometry relative="1" as="geometry">
            <mxPoint x="70" y="127.5" as="sourcePoint" />
            <mxPoint x="70" y="127.5" as="targetPoint" />
          </mxGeometry>
        </mxCell>
        <mxCell id="lpf-UgZtvlRDL02pAS0L-528" value="SGTGU_RAWDATA_Q1_2023 Vx" style="rounded=1;whiteSpace=wrap;html=1;fontSize=12;glass=0;strokeWidth=1;shadow=0;" vertex="1" parent="lpf-UgZtvlRDL02pAS0L-519">
          <mxGeometry x="70" y="107.5" width="260" height="32.5" as="geometry" />
        </mxCell>
        <mxCell id="lpf-UgZtvlRDL02pAS0L-529" value="&lt;b&gt;SGTGU_RAWDATA_SCHEMA&lt;/b&gt;" style="rounded=1;whiteSpace=wrap;html=1;" vertex="1" parent="lpf-UgZtvlRDL02pAS0L-519">
          <mxGeometry x="70" y="72.5" width="260" height="20" as="geometry" />
        </mxCell>
        <mxCell id="lpf-UgZtvlRDL02pAS0L-530" value="" style="group" vertex="1" connectable="0" parent="lpf-UgZtvlRDL02pAS0L-519">
          <mxGeometry x="335" width="55" height="50" as="geometry" />
        </mxCell>
        <mxCell id="lpf-UgZtvlRDL02pAS0L-531" value="" style="ellipse;whiteSpace=wrap;html=1;aspect=fixed;fillColor=#CCCCFF;" vertex="1" parent="lpf-UgZtvlRDL02pAS0L-530">
          <mxGeometry width="50" height="50" as="geometry" />
        </mxCell>
        <mxCell id="lpf-UgZtvlRDL02pAS0L-532" value="&lt;div style=&quot;text-align: center;&quot;&gt;&lt;span style=&quot;font-size: 18px;&quot;&gt;&lt;b&gt;DB3&lt;/b&gt;&lt;/span&gt;&lt;/div&gt;" style="text;html=1;strokeColor=none;fillColor=none;align=left;verticalAlign=middle;whiteSpace=wrap;rounded=0;" vertex="1" parent="lpf-UgZtvlRDL02pAS0L-530">
          <mxGeometry x="5" y="10" width="45" height="30" as="geometry" />
        </mxCell>
        <mxCell id="lpf-UgZtvlRDL02pAS0L-522" style="edgeStyle=orthogonalEdgeStyle;rounded=0;orthogonalLoop=1;jettySize=auto;html=1;entryX=0.5;entryY=1;entryDx=0;entryDy=0;" edge="1" parent="WIyWlLk6GJQsqaUBKTNV-1" source="lpf-UgZtvlRDL02pAS0L-524" target="lpf-UgZtvlRDL02pAS0L-232">
          <mxGeometry relative="1" as="geometry">
            <mxPoint x="4500" y="632.5" as="targetPoint" />
          </mxGeometry>
        </mxCell>
        <mxCell id="lpf-UgZtvlRDL02pAS0L-523" value="REDUNDANT VERSION &amp;amp;&amp;nbsp;&lt;br style=&quot;border-color: var(--border-color); background-color: rgb(251, 251, 251);&quot;&gt;MAINTAIN MAX 1 QUARTER&amp;nbsp;" style="edgeLabel;html=1;align=center;verticalAlign=middle;resizable=0;points=[];" vertex="1" connectable="0" parent="lpf-UgZtvlRDL02pAS0L-522">
          <mxGeometry x="-0.5327" y="-2" relative="1" as="geometry">
            <mxPoint x="35" y="2" as="offset" />
          </mxGeometry>
        </mxCell>
        <mxCell id="lpf-UgZtvlRDL02pAS0L-536" style="edgeStyle=orthogonalEdgeStyle;rounded=0;orthogonalLoop=1;jettySize=auto;html=1;entryX=0.5;entryY=1;entryDx=0;entryDy=0;exitX=0;exitY=0.5;exitDx=0;exitDy=0;" edge="1" parent="WIyWlLk6GJQsqaUBKTNV-1" source="lpf-UgZtvlRDL02pAS0L-645" target="lpf-UgZtvlRDL02pAS0L-232">
          <mxGeometry relative="1" as="geometry">
            <mxPoint x="4500" y="802.5" as="targetPoint" />
            <mxPoint x="4810" y="1150" as="sourcePoint" />
          </mxGeometry>
        </mxCell>
        <mxCell id="lpf-UgZtvlRDL02pAS0L-537" value="REDUNDANT VERSION &amp;amp;&amp;nbsp;&lt;br style=&quot;border-color: var(--border-color); background-color: rgb(251, 251, 251);&quot;&gt;MAINTAIN MAX 5 QUARTER&amp;nbsp;" style="edgeLabel;html=1;align=center;verticalAlign=middle;resizable=0;points=[];" vertex="1" connectable="0" parent="lpf-UgZtvlRDL02pAS0L-536">
          <mxGeometry x="-0.5327" y="-2" relative="1" as="geometry">
            <mxPoint x="134" y="2" as="offset" />
          </mxGeometry>
        </mxCell>
        <mxCell id="lpf-UgZtvlRDL02pAS0L-556" style="edgeStyle=orthogonalEdgeStyle;rounded=0;orthogonalLoop=1;jettySize=auto;html=1;" edge="1" parent="WIyWlLk6GJQsqaUBKTNV-1" source="lpf-UgZtvlRDL02pAS0L-553" target="lpf-UgZtvlRDL02pAS0L-555">
          <mxGeometry relative="1" as="geometry" />
        </mxCell>
        <mxCell id="lpf-UgZtvlRDL02pAS0L-553" value="ANALYSIS MANUALLY&lt;br&gt;BY SMECC&amp;nbsp;" style="rounded=1;whiteSpace=wrap;html=1;fontSize=12;glass=0;strokeWidth=1;shadow=0;" vertex="1" parent="WIyWlLk6GJQsqaUBKTNV-1">
          <mxGeometry x="5612.5" y="1103.75" width="160" height="40" as="geometry" />
        </mxCell>
        <mxCell id="lpf-UgZtvlRDL02pAS0L-764" style="edgeStyle=orthogonalEdgeStyle;rounded=0;orthogonalLoop=1;jettySize=auto;html=1;entryX=1;entryY=0.5;entryDx=0;entryDy=0;" edge="1" parent="WIyWlLk6GJQsqaUBKTNV-1" source="lpf-UgZtvlRDL02pAS0L-555" target="lpf-UgZtvlRDL02pAS0L-559">
          <mxGeometry relative="1" as="geometry" />
        </mxCell>
        <mxCell id="lpf-UgZtvlRDL02pAS0L-555" value="FINALDATA" style="rounded=1;whiteSpace=wrap;html=1;fontSize=12;glass=0;strokeWidth=1;shadow=0;" vertex="1" parent="WIyWlLk6GJQsqaUBKTNV-1">
          <mxGeometry x="5612.5" y="1225" width="160" height="40" as="geometry" />
        </mxCell>
        <mxCell id="lpf-UgZtvlRDL02pAS0L-557" value="" style="group" vertex="1" connectable="0" parent="WIyWlLk6GJQsqaUBKTNV-1">
          <mxGeometry x="5370" y="1220" width="55" height="50" as="geometry" />
        </mxCell>
        <mxCell id="lpf-UgZtvlRDL02pAS0L-558" value="" style="ellipse;whiteSpace=wrap;html=1;aspect=fixed;fillColor=#CCCCFF;" vertex="1" parent="lpf-UgZtvlRDL02pAS0L-557">
          <mxGeometry width="50" height="50" as="geometry" />
        </mxCell>
        <mxCell id="lpf-UgZtvlRDL02pAS0L-559" value="&lt;font style=&quot;font-size: 18px;&quot;&gt;&lt;b&gt;DB6&lt;/b&gt;&lt;/font&gt;" style="text;html=1;strokeColor=none;fillColor=none;align=left;verticalAlign=middle;whiteSpace=wrap;rounded=0;" vertex="1" parent="lpf-UgZtvlRDL02pAS0L-557">
          <mxGeometry x="5" y="10" width="45" height="30" as="geometry" />
        </mxCell>
        <mxCell id="lpf-UgZtvlRDL02pAS0L-563" value="" style="group" vertex="1" connectable="0" parent="WIyWlLk6GJQsqaUBKTNV-1">
          <mxGeometry x="4810" y="322.5" width="457" height="160" as="geometry" />
        </mxCell>
        <mxCell id="lpf-UgZtvlRDL02pAS0L-564" value="" style="group" vertex="1" connectable="0" parent="lpf-UgZtvlRDL02pAS0L-563">
          <mxGeometry x="330" width="127" height="58.889999999999986" as="geometry" />
        </mxCell>
        <mxCell id="lpf-UgZtvlRDL02pAS0L-565" value="" style="shape=image;verticalLabelPosition=bottom;labelBackgroundColor=default;verticalAlign=top;aspect=fixed;imageAspect=0;image=https://cdn.icon-icons.com/icons2/2699/PNG/512/postgresql_vertical_logo_icon_168900.png;" vertex="1" parent="lpf-UgZtvlRDL02pAS0L-564">
          <mxGeometry x="60" width="67" height="58.89" as="geometry" />
        </mxCell>
        <mxCell id="lpf-UgZtvlRDL02pAS0L-566" value="" style="rounded=1;whiteSpace=wrap;html=1;" vertex="1" parent="lpf-UgZtvlRDL02pAS0L-563">
          <mxGeometry y="55" width="400" height="105" as="geometry" />
        </mxCell>
        <mxCell id="lpf-UgZtvlRDL02pAS0L-567" value="&lt;div style=&quot;&quot;&gt;&lt;b&gt;CURRENT WORKING FINAL DATA&lt;/b&gt;&lt;/div&gt;" style="text;html=1;strokeColor=none;fillColor=none;align=left;verticalAlign=middle;whiteSpace=wrap;rounded=0;" vertex="1" parent="lpf-UgZtvlRDL02pAS0L-563">
          <mxGeometry x="10" y="8.89" width="330" height="50" as="geometry" />
        </mxCell>
        <mxCell id="lpf-UgZtvlRDL02pAS0L-568" style="edgeStyle=orthogonalEdgeStyle;rounded=0;orthogonalLoop=1;jettySize=auto;html=1;exitX=0.5;exitY=1;exitDx=0;exitDy=0;" edge="1" parent="lpf-UgZtvlRDL02pAS0L-563">
          <mxGeometry relative="1" as="geometry">
            <mxPoint x="70" y="157.5" as="sourcePoint" />
            <mxPoint x="70" y="157.5" as="targetPoint" />
          </mxGeometry>
        </mxCell>
        <mxCell id="lpf-UgZtvlRDL02pAS0L-569" style="edgeStyle=orthogonalEdgeStyle;rounded=0;orthogonalLoop=1;jettySize=auto;html=1;exitX=0.5;exitY=1;exitDx=0;exitDy=0;" edge="1" parent="lpf-UgZtvlRDL02pAS0L-563">
          <mxGeometry relative="1" as="geometry">
            <mxPoint x="70" y="127.5" as="sourcePoint" />
            <mxPoint x="70" y="127.5" as="targetPoint" />
          </mxGeometry>
        </mxCell>
        <mxCell id="lpf-UgZtvlRDL02pAS0L-570" value="SGTGU_RAWDATA_Q1_2023 Vx" style="rounded=1;whiteSpace=wrap;html=1;fontSize=12;glass=0;strokeWidth=1;shadow=0;" vertex="1" parent="lpf-UgZtvlRDL02pAS0L-563">
          <mxGeometry x="70" y="107.5" width="260" height="32.5" as="geometry" />
        </mxCell>
        <mxCell id="lpf-UgZtvlRDL02pAS0L-571" value="&lt;b&gt;SGTGU_FINALRAWDATA_CURRENT_SCHEMA&lt;/b&gt;" style="rounded=1;whiteSpace=wrap;html=1;" vertex="1" parent="lpf-UgZtvlRDL02pAS0L-563">
          <mxGeometry x="70" y="72.5" width="280" height="20" as="geometry" />
        </mxCell>
        <mxCell id="lpf-UgZtvlRDL02pAS0L-572" value="" style="group" vertex="1" connectable="0" parent="lpf-UgZtvlRDL02pAS0L-563">
          <mxGeometry x="335" width="55" height="50" as="geometry" />
        </mxCell>
        <mxCell id="lpf-UgZtvlRDL02pAS0L-573" value="" style="ellipse;whiteSpace=wrap;html=1;aspect=fixed;fillColor=#CCCCFF;" vertex="1" parent="lpf-UgZtvlRDL02pAS0L-572">
          <mxGeometry width="50" height="50" as="geometry" />
        </mxCell>
        <mxCell id="lpf-UgZtvlRDL02pAS0L-574" value="&lt;div style=&quot;text-align: center;&quot;&gt;&lt;span style=&quot;font-size: 18px;&quot;&gt;&lt;b&gt;DB1&lt;/b&gt;&lt;/span&gt;&lt;/div&gt;" style="text;html=1;strokeColor=none;fillColor=none;align=left;verticalAlign=middle;whiteSpace=wrap;rounded=0;" vertex="1" parent="lpf-UgZtvlRDL02pAS0L-572">
          <mxGeometry x="5" y="10" width="45" height="30" as="geometry" />
        </mxCell>
        <mxCell id="lpf-UgZtvlRDL02pAS0L-575" value="" style="group" vertex="1" connectable="0" parent="WIyWlLk6GJQsqaUBKTNV-1">
          <mxGeometry x="4820" y="1562.5" width="457" height="160" as="geometry" />
        </mxCell>
        <mxCell id="lpf-UgZtvlRDL02pAS0L-576" value="" style="group" vertex="1" connectable="0" parent="lpf-UgZtvlRDL02pAS0L-575">
          <mxGeometry x="330" width="127" height="58.889999999999986" as="geometry" />
        </mxCell>
        <mxCell id="lpf-UgZtvlRDL02pAS0L-577" value="" style="shape=image;verticalLabelPosition=bottom;labelBackgroundColor=default;verticalAlign=top;aspect=fixed;imageAspect=0;image=https://cdn.icon-icons.com/icons2/2699/PNG/512/postgresql_vertical_logo_icon_168900.png;" vertex="1" parent="lpf-UgZtvlRDL02pAS0L-576">
          <mxGeometry x="60" width="67" height="58.89" as="geometry" />
        </mxCell>
        <mxCell id="lpf-UgZtvlRDL02pAS0L-578" value="" style="rounded=1;whiteSpace=wrap;html=1;" vertex="1" parent="lpf-UgZtvlRDL02pAS0L-575">
          <mxGeometry y="55" width="400" height="105" as="geometry" />
        </mxCell>
        <mxCell id="lpf-UgZtvlRDL02pAS0L-579" value="&lt;div style=&quot;&quot;&gt;&lt;b&gt;FINAL_DATA_STORAGE_CURRENT_SCHEMA&lt;/b&gt;&lt;/div&gt;" style="text;html=1;strokeColor=none;fillColor=none;align=left;verticalAlign=middle;whiteSpace=wrap;rounded=0;" vertex="1" parent="lpf-UgZtvlRDL02pAS0L-575">
          <mxGeometry x="10" y="8.89" width="330" height="50" as="geometry" />
        </mxCell>
        <mxCell id="lpf-UgZtvlRDL02pAS0L-580" style="edgeStyle=orthogonalEdgeStyle;rounded=0;orthogonalLoop=1;jettySize=auto;html=1;exitX=0.5;exitY=1;exitDx=0;exitDy=0;" edge="1" parent="lpf-UgZtvlRDL02pAS0L-575">
          <mxGeometry relative="1" as="geometry">
            <mxPoint x="70" y="157.5" as="sourcePoint" />
            <mxPoint x="70" y="157.5" as="targetPoint" />
          </mxGeometry>
        </mxCell>
        <mxCell id="lpf-UgZtvlRDL02pAS0L-581" style="edgeStyle=orthogonalEdgeStyle;rounded=0;orthogonalLoop=1;jettySize=auto;html=1;exitX=0.5;exitY=1;exitDx=0;exitDy=0;" edge="1" parent="lpf-UgZtvlRDL02pAS0L-575">
          <mxGeometry relative="1" as="geometry">
            <mxPoint x="70" y="127.5" as="sourcePoint" />
            <mxPoint x="70" y="127.5" as="targetPoint" />
          </mxGeometry>
        </mxCell>
        <mxCell id="lpf-UgZtvlRDL02pAS0L-582" value="SGTGU_FINALDATA_Q1_2023 Vx" style="rounded=1;whiteSpace=wrap;html=1;fontSize=12;glass=0;strokeWidth=1;shadow=0;" vertex="1" parent="lpf-UgZtvlRDL02pAS0L-575">
          <mxGeometry x="70" y="107.5" width="260" height="32.5" as="geometry" />
        </mxCell>
        <mxCell id="lpf-UgZtvlRDL02pAS0L-583" value="&lt;b style=&quot;border-color: var(--border-color); text-align: left;&quot;&gt;FINAL_DATA_STORAGE_CURRENT_SCHEMA&lt;/b&gt;" style="rounded=1;whiteSpace=wrap;html=1;" vertex="1" parent="lpf-UgZtvlRDL02pAS0L-575">
          <mxGeometry x="70" y="72.5" width="260" height="20" as="geometry" />
        </mxCell>
        <mxCell id="lpf-UgZtvlRDL02pAS0L-584" value="" style="group" vertex="1" connectable="0" parent="lpf-UgZtvlRDL02pAS0L-575">
          <mxGeometry x="335" width="55" height="50" as="geometry" />
        </mxCell>
        <mxCell id="lpf-UgZtvlRDL02pAS0L-585" value="" style="ellipse;whiteSpace=wrap;html=1;aspect=fixed;fillColor=#CCCCFF;" vertex="1" parent="lpf-UgZtvlRDL02pAS0L-584">
          <mxGeometry width="50" height="50" as="geometry" />
        </mxCell>
        <mxCell id="lpf-UgZtvlRDL02pAS0L-586" value="&lt;div style=&quot;text-align: center;&quot;&gt;&lt;span style=&quot;font-size: 18px;&quot;&gt;&lt;b&gt;DB6&lt;/b&gt;&lt;/span&gt;&lt;/div&gt;" style="text;html=1;strokeColor=none;fillColor=none;align=left;verticalAlign=middle;whiteSpace=wrap;rounded=0;" vertex="1" parent="lpf-UgZtvlRDL02pAS0L-584">
          <mxGeometry x="5" y="10" width="45" height="30" as="geometry" />
        </mxCell>
        <mxCell id="lpf-UgZtvlRDL02pAS0L-643" value="" style="group" vertex="1" connectable="0" parent="WIyWlLk6GJQsqaUBKTNV-1">
          <mxGeometry x="4820" y="1292.5" width="457" height="235" as="geometry" />
        </mxCell>
        <mxCell id="lpf-UgZtvlRDL02pAS0L-667" value="" style="group" vertex="1" connectable="0" parent="lpf-UgZtvlRDL02pAS0L-643">
          <mxGeometry x="330" width="127" height="58.889999999999986" as="geometry" />
        </mxCell>
        <mxCell id="lpf-UgZtvlRDL02pAS0L-668" value="" style="shape=image;verticalLabelPosition=bottom;labelBackgroundColor=default;verticalAlign=top;aspect=fixed;imageAspect=0;image=https://cdn.icon-icons.com/icons2/2699/PNG/512/postgresql_vertical_logo_icon_168900.png;" vertex="1" parent="lpf-UgZtvlRDL02pAS0L-667">
          <mxGeometry x="60" width="67" height="58.89" as="geometry" />
        </mxCell>
        <mxCell id="lpf-UgZtvlRDL02pAS0L-645" value="" style="rounded=1;whiteSpace=wrap;html=1;" vertex="1" parent="lpf-UgZtvlRDL02pAS0L-643">
          <mxGeometry y="55" width="400" height="180" as="geometry" />
        </mxCell>
        <mxCell id="lpf-UgZtvlRDL02pAS0L-646" value="&lt;div style=&quot;&quot;&gt;&lt;b style=&quot;background-color: initial;&quot;&gt;PAST FINAL RAW DATA STORAGE&amp;nbsp;&lt;/b&gt;&lt;b style=&quot;background-color: initial;&quot;&gt;LATEST VERSION&amp;nbsp; ONLY (5 QUARTER ONLY BASED ON LATEST CURRENT MONTHS&amp;nbsp;&lt;/b&gt;&lt;b style=&quot;background-color: initial;&quot;&gt;[ USE TRIGGER FUNCTION ]&amp;nbsp;&lt;/b&gt;&lt;/div&gt;" style="text;html=1;strokeColor=none;fillColor=none;align=left;verticalAlign=middle;whiteSpace=wrap;rounded=0;" vertex="1" parent="lpf-UgZtvlRDL02pAS0L-643">
          <mxGeometry x="10" y="5" width="330" height="50" as="geometry" />
        </mxCell>
        <mxCell id="lpf-UgZtvlRDL02pAS0L-647" style="edgeStyle=orthogonalEdgeStyle;rounded=0;orthogonalLoop=1;jettySize=auto;html=1;exitX=0.5;exitY=1;exitDx=0;exitDy=0;" edge="1" parent="lpf-UgZtvlRDL02pAS0L-643">
          <mxGeometry relative="1" as="geometry">
            <mxPoint x="70" y="157.5" as="sourcePoint" />
            <mxPoint x="70" y="157.5" as="targetPoint" />
          </mxGeometry>
        </mxCell>
        <mxCell id="lpf-UgZtvlRDL02pAS0L-650" style="edgeStyle=orthogonalEdgeStyle;rounded=0;orthogonalLoop=1;jettySize=auto;html=1;exitX=0.5;exitY=1;exitDx=0;exitDy=0;" edge="1" parent="lpf-UgZtvlRDL02pAS0L-643">
          <mxGeometry relative="1" as="geometry">
            <mxPoint x="70" y="127.5" as="sourcePoint" />
            <mxPoint x="70" y="127.5" as="targetPoint" />
          </mxGeometry>
        </mxCell>
        <mxCell id="lpf-UgZtvlRDL02pAS0L-655" value="FRD Q4 2021 VX" style="rounded=1;whiteSpace=wrap;html=1;fontSize=12;glass=0;strokeWidth=1;shadow=0;" vertex="1" parent="lpf-UgZtvlRDL02pAS0L-643">
          <mxGeometry x="140" y="107.5" width="120" height="20" as="geometry" />
        </mxCell>
        <mxCell id="lpf-UgZtvlRDL02pAS0L-658" value="&lt;b&gt;FRD_SCHEMA_2021&lt;/b&gt;" style="rounded=1;whiteSpace=wrap;html=1;" vertex="1" parent="lpf-UgZtvlRDL02pAS0L-643">
          <mxGeometry x="140" y="72.5" width="120" height="20" as="geometry" />
        </mxCell>
        <mxCell id="lpf-UgZtvlRDL02pAS0L-659" value="FRD Q3 2020 VX" style="rounded=1;whiteSpace=wrap;html=1;fontSize=12;glass=0;strokeWidth=1;shadow=0;container=0;" vertex="1" parent="lpf-UgZtvlRDL02pAS0L-643">
          <mxGeometry x="270" y="137.5" width="120" height="20" as="geometry" />
        </mxCell>
        <mxCell id="lpf-UgZtvlRDL02pAS0L-660" value="FRD Q4 2020 VX" style="rounded=1;whiteSpace=wrap;html=1;fontSize=12;glass=0;strokeWidth=1;shadow=0;" vertex="1" parent="lpf-UgZtvlRDL02pAS0L-643">
          <mxGeometry x="270" y="107.5" width="120" height="20" as="geometry" />
        </mxCell>
        <mxCell id="lpf-UgZtvlRDL02pAS0L-661" value="FRD Q1 2020 VX" style="rounded=1;whiteSpace=wrap;html=1;fontSize=12;glass=0;strokeWidth=1;shadow=0;container=0;" vertex="1" parent="lpf-UgZtvlRDL02pAS0L-643">
          <mxGeometry x="270" y="197.5" width="120" height="20" as="geometry" />
        </mxCell>
        <mxCell id="lpf-UgZtvlRDL02pAS0L-662" value="FRD Q2 2020 VX" style="rounded=1;whiteSpace=wrap;html=1;fontSize=12;glass=0;strokeWidth=1;shadow=0;container=0;" vertex="1" parent="lpf-UgZtvlRDL02pAS0L-643">
          <mxGeometry x="270" y="167.5" width="120" height="20" as="geometry" />
        </mxCell>
        <mxCell id="lpf-UgZtvlRDL02pAS0L-663" value="&lt;b&gt;FRD_SCHEMA_2020&lt;/b&gt;" style="rounded=1;whiteSpace=wrap;html=1;" vertex="1" parent="lpf-UgZtvlRDL02pAS0L-643">
          <mxGeometry x="270" y="72.5" width="120" height="20" as="geometry" />
        </mxCell>
        <mxCell id="lpf-UgZtvlRDL02pAS0L-664" value="" style="group" vertex="1" connectable="0" parent="lpf-UgZtvlRDL02pAS0L-643">
          <mxGeometry x="335" width="55" height="50" as="geometry" />
        </mxCell>
        <mxCell id="lpf-UgZtvlRDL02pAS0L-665" value="" style="ellipse;whiteSpace=wrap;html=1;aspect=fixed;fillColor=#CCCCFF;" vertex="1" parent="lpf-UgZtvlRDL02pAS0L-664">
          <mxGeometry width="50" height="50" as="geometry" />
        </mxCell>
        <mxCell id="lpf-UgZtvlRDL02pAS0L-666" value="&lt;font style=&quot;font-size: 18px;&quot;&gt;&lt;b&gt;DB5&lt;/b&gt;&lt;/font&gt;" style="text;html=1;strokeColor=none;fillColor=none;align=left;verticalAlign=middle;whiteSpace=wrap;rounded=0;" vertex="1" parent="lpf-UgZtvlRDL02pAS0L-664">
          <mxGeometry x="5" y="10" width="45" height="30" as="geometry" />
        </mxCell>
        <mxCell id="lpf-UgZtvlRDL02pAS0L-672" style="edgeStyle=orthogonalEdgeStyle;rounded=0;orthogonalLoop=1;jettySize=auto;html=1;entryX=0.833;entryY=0.542;entryDx=0;entryDy=0;entryPerimeter=0;" edge="1" parent="WIyWlLk6GJQsqaUBKTNV-1" source="lpf-UgZtvlRDL02pAS0L-566" target="lpf-UgZtvlRDL02pAS0L-232">
          <mxGeometry relative="1" as="geometry" />
        </mxCell>
        <mxCell id="lpf-UgZtvlRDL02pAS0L-674" value="REDUNDANT VERSION &amp;amp;&amp;nbsp;&lt;br style=&quot;border-color: var(--border-color); background-color: rgb(251, 251, 251);&quot;&gt;MAINTAIN MAX 1 QUARTER&amp;nbsp;" style="edgeLabel;html=1;align=center;verticalAlign=middle;resizable=0;points=[];" vertex="1" connectable="0" parent="lpf-UgZtvlRDL02pAS0L-672">
          <mxGeometry x="-0.1324" y="2" relative="1" as="geometry">
            <mxPoint as="offset" />
          </mxGeometry>
        </mxCell>
        <mxCell id="lpf-UgZtvlRDL02pAS0L-675" value="" style="group" vertex="1" connectable="0" parent="WIyWlLk6GJQsqaUBKTNV-1">
          <mxGeometry x="6370" y="1361.5" width="55" height="50" as="geometry" />
        </mxCell>
        <mxCell id="lpf-UgZtvlRDL02pAS0L-676" value="" style="ellipse;whiteSpace=wrap;html=1;aspect=fixed;fillColor=#CCCCFF;" vertex="1" parent="lpf-UgZtvlRDL02pAS0L-675">
          <mxGeometry width="50" height="50" as="geometry" />
        </mxCell>
        <mxCell id="lpf-UgZtvlRDL02pAS0L-677" value="&lt;font style=&quot;font-size: 18px;&quot;&gt;&lt;b&gt;DB1&lt;/b&gt;&lt;/font&gt;" style="text;html=1;strokeColor=none;fillColor=none;align=left;verticalAlign=middle;whiteSpace=wrap;rounded=0;" vertex="1" parent="lpf-UgZtvlRDL02pAS0L-675">
          <mxGeometry x="5" y="10" width="50" height="30" as="geometry" />
        </mxCell>
        <mxCell id="lpf-UgZtvlRDL02pAS0L-738" value="" style="group" vertex="1" connectable="0" parent="WIyWlLk6GJQsqaUBKTNV-1">
          <mxGeometry x="4810" y="1040" width="457" height="235" as="geometry" />
        </mxCell>
        <mxCell id="lpf-UgZtvlRDL02pAS0L-682" value="" style="group" vertex="1" connectable="0" parent="lpf-UgZtvlRDL02pAS0L-738">
          <mxGeometry x="330" width="127" height="58.889999999999986" as="geometry" />
        </mxCell>
        <mxCell id="lpf-UgZtvlRDL02pAS0L-683" value="" style="shape=image;verticalLabelPosition=bottom;labelBackgroundColor=default;verticalAlign=top;aspect=fixed;imageAspect=0;image=https://cdn.icon-icons.com/icons2/2699/PNG/512/postgresql_vertical_logo_icon_168900.png;" vertex="1" parent="lpf-UgZtvlRDL02pAS0L-682">
          <mxGeometry x="60" width="67" height="58.89" as="geometry" />
        </mxCell>
        <mxCell id="lpf-UgZtvlRDL02pAS0L-684" value="" style="rounded=1;whiteSpace=wrap;html=1;" vertex="1" parent="lpf-UgZtvlRDL02pAS0L-738">
          <mxGeometry y="55" width="400" height="180" as="geometry" />
        </mxCell>
        <mxCell id="lpf-UgZtvlRDL02pAS0L-685" value="&lt;div style=&quot;&quot;&gt;&lt;b style=&quot;background-color: initial;&quot;&gt;PAST FINALDATA STORAGE&amp;nbsp;&lt;/b&gt;&lt;b style=&quot;background-color: initial;&quot;&gt;LATEST VERSION&amp;nbsp; ONLY (12 QUARTER ONLY BASED ON LATEST CURRENT MONTHS&amp;nbsp;&lt;/b&gt;&lt;b style=&quot;background-color: initial;&quot;&gt;[ USE TRIGGER FUNCTION ]&amp;nbsp;&lt;/b&gt;&lt;/div&gt;" style="text;html=1;strokeColor=none;fillColor=none;align=left;verticalAlign=middle;whiteSpace=wrap;rounded=0;" vertex="1" parent="lpf-UgZtvlRDL02pAS0L-738">
          <mxGeometry x="10" y="5" width="330" height="50" as="geometry" />
        </mxCell>
        <mxCell id="lpf-UgZtvlRDL02pAS0L-686" style="edgeStyle=orthogonalEdgeStyle;rounded=0;orthogonalLoop=1;jettySize=auto;html=1;exitX=0.5;exitY=1;exitDx=0;exitDy=0;" edge="1" parent="lpf-UgZtvlRDL02pAS0L-738">
          <mxGeometry relative="1" as="geometry">
            <mxPoint x="70" y="157.5" as="sourcePoint" />
            <mxPoint x="70" y="157.5" as="targetPoint" />
          </mxGeometry>
        </mxCell>
        <mxCell id="lpf-UgZtvlRDL02pAS0L-687" style="edgeStyle=orthogonalEdgeStyle;rounded=0;orthogonalLoop=1;jettySize=auto;html=1;exitX=0.5;exitY=1;exitDx=0;exitDy=0;" edge="1" parent="lpf-UgZtvlRDL02pAS0L-738">
          <mxGeometry relative="1" as="geometry">
            <mxPoint x="70" y="127.5" as="sourcePoint" />
            <mxPoint x="70" y="127.5" as="targetPoint" />
          </mxGeometry>
        </mxCell>
        <mxCell id="lpf-UgZtvlRDL02pAS0L-690" value="FRD Q3 2020 VX" style="rounded=1;whiteSpace=wrap;html=1;fontSize=12;glass=0;strokeWidth=1;shadow=0;container=0;" vertex="1" parent="lpf-UgZtvlRDL02pAS0L-738">
          <mxGeometry x="270" y="137.5" width="120" height="20" as="geometry" />
        </mxCell>
        <mxCell id="lpf-UgZtvlRDL02pAS0L-691" value="FRD Q4 2020 VX" style="rounded=1;whiteSpace=wrap;html=1;fontSize=12;glass=0;strokeWidth=1;shadow=0;" vertex="1" parent="lpf-UgZtvlRDL02pAS0L-738">
          <mxGeometry x="270" y="107.5" width="120" height="20" as="geometry" />
        </mxCell>
        <mxCell id="lpf-UgZtvlRDL02pAS0L-692" value="FRD Q1 2020 VX" style="rounded=1;whiteSpace=wrap;html=1;fontSize=12;glass=0;strokeWidth=1;shadow=0;container=0;" vertex="1" parent="lpf-UgZtvlRDL02pAS0L-738">
          <mxGeometry x="270" y="197.5" width="120" height="20" as="geometry" />
        </mxCell>
        <mxCell id="lpf-UgZtvlRDL02pAS0L-693" value="FRD Q2 2020 VX" style="rounded=1;whiteSpace=wrap;html=1;fontSize=12;glass=0;strokeWidth=1;shadow=0;container=0;" vertex="1" parent="lpf-UgZtvlRDL02pAS0L-738">
          <mxGeometry x="270" y="167.5" width="120" height="20" as="geometry" />
        </mxCell>
        <mxCell id="lpf-UgZtvlRDL02pAS0L-694" value="&lt;b&gt;FRD_SCHEMA_2020&lt;/b&gt;" style="rounded=1;whiteSpace=wrap;html=1;" vertex="1" parent="lpf-UgZtvlRDL02pAS0L-738">
          <mxGeometry x="270" y="72.5" width="120" height="20" as="geometry" />
        </mxCell>
        <mxCell id="lpf-UgZtvlRDL02pAS0L-695" value="" style="group" vertex="1" connectable="0" parent="lpf-UgZtvlRDL02pAS0L-738">
          <mxGeometry x="335" width="55" height="50" as="geometry" />
        </mxCell>
        <mxCell id="lpf-UgZtvlRDL02pAS0L-696" value="" style="ellipse;whiteSpace=wrap;html=1;aspect=fixed;fillColor=#CCCCFF;" vertex="1" parent="lpf-UgZtvlRDL02pAS0L-695">
          <mxGeometry width="50" height="50" as="geometry" />
        </mxCell>
        <mxCell id="lpf-UgZtvlRDL02pAS0L-697" value="&lt;font style=&quot;font-size: 18px;&quot;&gt;&lt;b&gt;DB4&lt;/b&gt;&lt;/font&gt;" style="text;html=1;strokeColor=none;fillColor=none;align=left;verticalAlign=middle;whiteSpace=wrap;rounded=0;" vertex="1" parent="lpf-UgZtvlRDL02pAS0L-695">
          <mxGeometry x="5" y="10" width="45" height="30" as="geometry" />
        </mxCell>
        <mxCell id="lpf-UgZtvlRDL02pAS0L-702" value="&lt;b&gt;FRD_SCHEMA_2020&lt;/b&gt;" style="rounded=1;whiteSpace=wrap;html=1;" vertex="1" parent="lpf-UgZtvlRDL02pAS0L-738">
          <mxGeometry x="270" y="72.5" width="120" height="20" as="geometry" />
        </mxCell>
        <mxCell id="lpf-UgZtvlRDL02pAS0L-703" value="FRD Q4 2020 VX" style="rounded=1;whiteSpace=wrap;html=1;fontSize=12;glass=0;strokeWidth=1;shadow=0;" vertex="1" parent="lpf-UgZtvlRDL02pAS0L-738">
          <mxGeometry x="270" y="107.5" width="120" height="20" as="geometry" />
        </mxCell>
        <mxCell id="lpf-UgZtvlRDL02pAS0L-728" value="FRD Q3&amp;nbsp;&lt;b style=&quot;border-color: var(--border-color);&quot;&gt;2021&lt;/b&gt;VX" style="rounded=1;whiteSpace=wrap;html=1;fontSize=12;glass=0;strokeWidth=1;shadow=0;container=0;" vertex="1" parent="lpf-UgZtvlRDL02pAS0L-738">
          <mxGeometry x="140" y="137.5" width="120" height="20" as="geometry" />
        </mxCell>
        <mxCell id="lpf-UgZtvlRDL02pAS0L-729" value="FRD Q1&amp;nbsp;&lt;b style=&quot;border-color: var(--border-color);&quot;&gt;2021&lt;/b&gt;VX" style="rounded=1;whiteSpace=wrap;html=1;fontSize=12;glass=0;strokeWidth=1;shadow=0;container=0;" vertex="1" parent="lpf-UgZtvlRDL02pAS0L-738">
          <mxGeometry x="140" y="197.5" width="120" height="20" as="geometry" />
        </mxCell>
        <mxCell id="lpf-UgZtvlRDL02pAS0L-730" value="FRD Q2&amp;nbsp;&lt;b style=&quot;border-color: var(--border-color);&quot;&gt;2021&lt;/b&gt;VX" style="rounded=1;whiteSpace=wrap;html=1;fontSize=12;glass=0;strokeWidth=1;shadow=0;container=0;" vertex="1" parent="lpf-UgZtvlRDL02pAS0L-738">
          <mxGeometry x="140" y="167.5" width="120" height="20" as="geometry" />
        </mxCell>
        <mxCell id="lpf-UgZtvlRDL02pAS0L-731" value="&lt;b&gt;FRD_SCHEMA_2021&lt;/b&gt;" style="rounded=1;whiteSpace=wrap;html=1;" vertex="1" parent="lpf-UgZtvlRDL02pAS0L-738">
          <mxGeometry x="140" y="72.5" width="120" height="20" as="geometry" />
        </mxCell>
        <mxCell id="lpf-UgZtvlRDL02pAS0L-732" value="FRD Q4&amp;nbsp;&lt;b style=&quot;border-color: var(--border-color);&quot;&gt;2021&lt;/b&gt;&amp;nbsp;VX" style="rounded=1;whiteSpace=wrap;html=1;fontSize=12;glass=0;strokeWidth=1;shadow=0;" vertex="1" parent="lpf-UgZtvlRDL02pAS0L-738">
          <mxGeometry x="140" y="107.5" width="120" height="20" as="geometry" />
        </mxCell>
        <mxCell id="lpf-UgZtvlRDL02pAS0L-733" value="FRD Q3&amp;nbsp;&lt;b style=&quot;border-color: var(--border-color);&quot;&gt;2022&lt;/b&gt;VX" style="rounded=1;whiteSpace=wrap;html=1;fontSize=12;glass=0;strokeWidth=1;shadow=0;container=0;" vertex="1" parent="lpf-UgZtvlRDL02pAS0L-738">
          <mxGeometry x="10" y="137.5" width="120" height="20" as="geometry" />
        </mxCell>
        <mxCell id="lpf-UgZtvlRDL02pAS0L-734" value="FRD Q1&amp;nbsp;&lt;b style=&quot;border-color: var(--border-color);&quot;&gt;2022&lt;/b&gt;VX" style="rounded=1;whiteSpace=wrap;html=1;fontSize=12;glass=0;strokeWidth=1;shadow=0;container=0;" vertex="1" parent="lpf-UgZtvlRDL02pAS0L-738">
          <mxGeometry x="10" y="197.5" width="120" height="20" as="geometry" />
        </mxCell>
        <mxCell id="lpf-UgZtvlRDL02pAS0L-735" value="FRD Q2&amp;nbsp;&lt;b style=&quot;border-color: var(--border-color);&quot;&gt;2022&lt;/b&gt;VX" style="rounded=1;whiteSpace=wrap;html=1;fontSize=12;glass=0;strokeWidth=1;shadow=0;container=0;" vertex="1" parent="lpf-UgZtvlRDL02pAS0L-738">
          <mxGeometry x="10" y="167.5" width="120" height="20" as="geometry" />
        </mxCell>
        <mxCell id="lpf-UgZtvlRDL02pAS0L-736" value="&lt;b&gt;FRD_SCHEMA_2022&lt;/b&gt;" style="rounded=1;whiteSpace=wrap;html=1;" vertex="1" parent="lpf-UgZtvlRDL02pAS0L-738">
          <mxGeometry x="10" y="72.5" width="120" height="20" as="geometry" />
        </mxCell>
        <mxCell id="lpf-UgZtvlRDL02pAS0L-737" value="FRD Q4&amp;nbsp;&lt;b style=&quot;border-color: var(--border-color);&quot;&gt;2022&lt;/b&gt;VX" style="rounded=1;whiteSpace=wrap;html=1;fontSize=12;glass=0;strokeWidth=1;shadow=0;" vertex="1" parent="lpf-UgZtvlRDL02pAS0L-738">
          <mxGeometry x="10" y="107.5" width="120" height="20" as="geometry" />
        </mxCell>
        <mxCell id="lpf-UgZtvlRDL02pAS0L-739" style="edgeStyle=orthogonalEdgeStyle;rounded=0;orthogonalLoop=1;jettySize=auto;html=1;entryX=0.5;entryY=1;entryDx=0;entryDy=0;" edge="1" parent="WIyWlLk6GJQsqaUBKTNV-1" source="lpf-UgZtvlRDL02pAS0L-684" target="lpf-UgZtvlRDL02pAS0L-232">
          <mxGeometry relative="1" as="geometry" />
        </mxCell>
        <mxCell id="lpf-UgZtvlRDL02pAS0L-740" value="REDUNDANT VERSION &amp;amp;&amp;nbsp;&lt;br style=&quot;border-color: var(--border-color); background-color: rgb(251, 251, 251);&quot;&gt;MAINTAIN MAX 1 QUARTER&amp;nbsp;" style="edgeLabel;html=1;align=center;verticalAlign=middle;resizable=0;points=[];" vertex="1" connectable="0" parent="lpf-UgZtvlRDL02pAS0L-739">
          <mxGeometry x="-0.7193" y="-3" relative="1" as="geometry">
            <mxPoint as="offset" />
          </mxGeometry>
        </mxCell>
        <mxCell id="lpf-UgZtvlRDL02pAS0L-778" style="edgeStyle=orthogonalEdgeStyle;rounded=0;orthogonalLoop=1;jettySize=auto;html=1;entryX=0.5;entryY=0;entryDx=0;entryDy=0;" edge="1" parent="WIyWlLk6GJQsqaUBKTNV-1" source="lpf-UgZtvlRDL02pAS0L-744" target="lpf-UgZtvlRDL02pAS0L-388">
          <mxGeometry relative="1" as="geometry" />
        </mxCell>
        <mxCell id="lpf-UgZtvlRDL02pAS0L-779" value="USER ACCEPT&amp;nbsp;" style="edgeLabel;html=1;align=center;verticalAlign=middle;resizable=0;points=[];" vertex="1" connectable="0" parent="lpf-UgZtvlRDL02pAS0L-778">
          <mxGeometry x="-0.1524" y="1" relative="1" as="geometry">
            <mxPoint x="-1" y="13" as="offset" />
          </mxGeometry>
        </mxCell>
        <mxCell id="lpf-UgZtvlRDL02pAS0L-780" style="edgeStyle=orthogonalEdgeStyle;rounded=0;orthogonalLoop=1;jettySize=auto;html=1;entryX=0.25;entryY=1;entryDx=0;entryDy=0;" edge="1" parent="WIyWlLk6GJQsqaUBKTNV-1" source="lpf-UgZtvlRDL02pAS0L-744" target="lpf-UgZtvlRDL02pAS0L-249">
          <mxGeometry relative="1" as="geometry">
            <Array as="points">
              <mxPoint x="5693" y="830.5" />
              <mxPoint x="5973" y="830.5" />
            </Array>
          </mxGeometry>
        </mxCell>
        <mxCell id="lpf-UgZtvlRDL02pAS0L-781" value="USER REJECT" style="edgeLabel;html=1;align=center;verticalAlign=middle;resizable=0;points=[];" vertex="1" connectable="0" parent="lpf-UgZtvlRDL02pAS0L-780">
          <mxGeometry x="-0.269" y="-5" relative="1" as="geometry">
            <mxPoint x="31" y="-8" as="offset" />
          </mxGeometry>
        </mxCell>
        <mxCell id="lpf-UgZtvlRDL02pAS0L-744" value="PULL LATEST DATA&amp;nbsp;&lt;br&gt;CURRENT WORKING" style="rounded=1;whiteSpace=wrap;html=1;fontSize=12;glass=0;strokeWidth=1;shadow=0;" vertex="1" parent="WIyWlLk6GJQsqaUBKTNV-1">
          <mxGeometry x="5612.5" y="770" width="160" height="40" as="geometry" />
        </mxCell>
        <mxCell id="lpf-UgZtvlRDL02pAS0L-749" value="" style="group" vertex="1" connectable="0" parent="WIyWlLk6GJQsqaUBKTNV-1">
          <mxGeometry x="4820" y="1742.5" width="457" height="160" as="geometry" />
        </mxCell>
        <mxCell id="lpf-UgZtvlRDL02pAS0L-750" value="" style="group" vertex="1" connectable="0" parent="lpf-UgZtvlRDL02pAS0L-749">
          <mxGeometry x="330" width="127" height="58.889999999999986" as="geometry" />
        </mxCell>
        <mxCell id="lpf-UgZtvlRDL02pAS0L-751" value="" style="shape=image;verticalLabelPosition=bottom;labelBackgroundColor=default;verticalAlign=top;aspect=fixed;imageAspect=0;image=https://cdn.icon-icons.com/icons2/2699/PNG/512/postgresql_vertical_logo_icon_168900.png;" vertex="1" parent="lpf-UgZtvlRDL02pAS0L-750">
          <mxGeometry x="60" width="67" height="58.89" as="geometry" />
        </mxCell>
        <mxCell id="lpf-UgZtvlRDL02pAS0L-752" value="" style="rounded=1;whiteSpace=wrap;html=1;" vertex="1" parent="lpf-UgZtvlRDL02pAS0L-749">
          <mxGeometry y="55" width="400" height="105" as="geometry" />
        </mxCell>
        <mxCell id="lpf-UgZtvlRDL02pAS0L-753" value="&lt;div style=&quot;&quot;&gt;&lt;b&gt;TIME SERIES GENERATED DATABASE&lt;/b&gt;&lt;/div&gt;" style="text;html=1;strokeColor=none;fillColor=none;align=left;verticalAlign=middle;whiteSpace=wrap;rounded=0;" vertex="1" parent="lpf-UgZtvlRDL02pAS0L-749">
          <mxGeometry x="10" y="8.89" width="330" height="50" as="geometry" />
        </mxCell>
        <mxCell id="lpf-UgZtvlRDL02pAS0L-754" style="edgeStyle=orthogonalEdgeStyle;rounded=0;orthogonalLoop=1;jettySize=auto;html=1;exitX=0.5;exitY=1;exitDx=0;exitDy=0;" edge="1" parent="lpf-UgZtvlRDL02pAS0L-749">
          <mxGeometry relative="1" as="geometry">
            <mxPoint x="70" y="157.5" as="sourcePoint" />
            <mxPoint x="70" y="157.5" as="targetPoint" />
          </mxGeometry>
        </mxCell>
        <mxCell id="lpf-UgZtvlRDL02pAS0L-755" style="edgeStyle=orthogonalEdgeStyle;rounded=0;orthogonalLoop=1;jettySize=auto;html=1;exitX=0.5;exitY=1;exitDx=0;exitDy=0;" edge="1" parent="lpf-UgZtvlRDL02pAS0L-749">
          <mxGeometry relative="1" as="geometry">
            <mxPoint x="70" y="127.5" as="sourcePoint" />
            <mxPoint x="70" y="127.5" as="targetPoint" />
          </mxGeometry>
        </mxCell>
        <mxCell id="lpf-UgZtvlRDL02pAS0L-756" value="SGTGU_TS_Q1_2023 Vx" style="rounded=1;whiteSpace=wrap;html=1;fontSize=12;glass=0;strokeWidth=1;shadow=0;" vertex="1" parent="lpf-UgZtvlRDL02pAS0L-749">
          <mxGeometry x="70" y="107.5" width="260" height="32.5" as="geometry" />
        </mxCell>
        <mxCell id="lpf-UgZtvlRDL02pAS0L-757" value="&lt;b&gt;TIMESERIES_SCHEMA&lt;/b&gt;" style="rounded=1;whiteSpace=wrap;html=1;" vertex="1" parent="lpf-UgZtvlRDL02pAS0L-749">
          <mxGeometry x="70" y="72.5" width="260" height="20" as="geometry" />
        </mxCell>
        <mxCell id="lpf-UgZtvlRDL02pAS0L-758" value="" style="group" vertex="1" connectable="0" parent="lpf-UgZtvlRDL02pAS0L-749">
          <mxGeometry x="335" width="55" height="50" as="geometry" />
        </mxCell>
        <mxCell id="lpf-UgZtvlRDL02pAS0L-759" value="" style="ellipse;whiteSpace=wrap;html=1;aspect=fixed;fillColor=#CCCCFF;" vertex="1" parent="lpf-UgZtvlRDL02pAS0L-758">
          <mxGeometry width="50" height="50" as="geometry" />
        </mxCell>
        <mxCell id="lpf-UgZtvlRDL02pAS0L-760" value="&lt;div style=&quot;text-align: center;&quot;&gt;&lt;span style=&quot;font-size: 18px;&quot;&gt;&lt;b&gt;DB7&lt;/b&gt;&lt;/span&gt;&lt;/div&gt;" style="text;html=1;strokeColor=none;fillColor=none;align=left;verticalAlign=middle;whiteSpace=wrap;rounded=0;" vertex="1" parent="lpf-UgZtvlRDL02pAS0L-758">
          <mxGeometry x="5" y="10" width="45" height="30" as="geometry" />
        </mxCell>
        <mxCell id="lpf-UgZtvlRDL02pAS0L-765" style="edgeStyle=orthogonalEdgeStyle;rounded=0;orthogonalLoop=1;jettySize=auto;html=1;entryX=0.5;entryY=1;entryDx=0;entryDy=0;" edge="1" parent="WIyWlLk6GJQsqaUBKTNV-1" source="lpf-UgZtvlRDL02pAS0L-578" target="lpf-UgZtvlRDL02pAS0L-232">
          <mxGeometry relative="1" as="geometry" />
        </mxCell>
        <mxCell id="lpf-UgZtvlRDL02pAS0L-766" style="edgeStyle=orthogonalEdgeStyle;rounded=0;orthogonalLoop=1;jettySize=auto;html=1;entryX=0.5;entryY=1;entryDx=0;entryDy=0;" edge="1" parent="WIyWlLk6GJQsqaUBKTNV-1" source="lpf-UgZtvlRDL02pAS0L-752" target="lpf-UgZtvlRDL02pAS0L-232">
          <mxGeometry relative="1" as="geometry" />
        </mxCell>
        <mxCell id="lpf-UgZtvlRDL02pAS0L-774" style="edgeStyle=orthogonalEdgeStyle;rounded=0;orthogonalLoop=1;jettySize=auto;html=1;entryX=1;entryY=0.5;entryDx=0;entryDy=0;" edge="1" parent="WIyWlLk6GJQsqaUBKTNV-1" source="lpf-UgZtvlRDL02pAS0L-768" target="lpf-UgZtvlRDL02pAS0L-772">
          <mxGeometry relative="1" as="geometry">
            <Array as="points">
              <mxPoint x="6270" y="1102.5" />
              <mxPoint x="6270" y="1172.5" />
            </Array>
          </mxGeometry>
        </mxCell>
        <mxCell id="lpf-UgZtvlRDL02pAS0L-768" value="USER DOWNLOAD" style="rounded=1;whiteSpace=wrap;html=1;fontSize=12;glass=0;strokeWidth=1;shadow=0;" vertex="1" parent="WIyWlLk6GJQsqaUBKTNV-1">
          <mxGeometry x="5928.75" y="1082.5" width="167.5" height="40" as="geometry" />
        </mxCell>
        <mxCell id="lpf-UgZtvlRDL02pAS0L-777" style="edgeStyle=orthogonalEdgeStyle;rounded=0;orthogonalLoop=1;jettySize=auto;html=1;entryX=0.5;entryY=0;entryDx=0;entryDy=0;" edge="1" parent="WIyWlLk6GJQsqaUBKTNV-1" source="lpf-UgZtvlRDL02pAS0L-772" target="lpf-UgZtvlRDL02pAS0L-436">
          <mxGeometry relative="1" as="geometry" />
        </mxCell>
        <mxCell id="lpf-UgZtvlRDL02pAS0L-772" value="USER REUPLOAD&lt;br&gt;TIME SERIES" style="rounded=1;whiteSpace=wrap;html=1;fontSize=12;glass=0;strokeWidth=1;shadow=0;" vertex="1" parent="WIyWlLk6GJQsqaUBKTNV-1">
          <mxGeometry x="5928.75" y="1152.5" width="167.5" height="40" as="geometry" />
        </mxCell>
        <mxCell id="lpf-UgZtvlRDL02pAS0L-775" value="REVISE TIMESERIES&amp;nbsp;&lt;br&gt;VALUE" style="rounded=1;whiteSpace=wrap;html=1;fontSize=12;glass=0;strokeWidth=1;shadow=0;" vertex="1" parent="WIyWlLk6GJQsqaUBKTNV-1">
          <mxGeometry x="6210" y="1112.5" width="167.5" height="40" as="geometry" />
        </mxCell>
        <mxCell id="lpf-UgZtvlRDL02pAS0L-782" value="" style="group" vertex="1" connectable="0" parent="WIyWlLk6GJQsqaUBKTNV-1">
          <mxGeometry x="5360" y="912.5" width="55" height="50" as="geometry" />
        </mxCell>
        <mxCell id="lpf-UgZtvlRDL02pAS0L-783" value="" style="ellipse;whiteSpace=wrap;html=1;aspect=fixed;fillColor=#CCCCFF;" vertex="1" parent="lpf-UgZtvlRDL02pAS0L-782">
          <mxGeometry width="50" height="50" as="geometry" />
        </mxCell>
        <mxCell id="lpf-UgZtvlRDL02pAS0L-784" value="&lt;font style=&quot;font-size: 18px;&quot;&gt;&lt;b&gt;DB1&lt;/b&gt;&lt;/font&gt;" style="text;html=1;strokeColor=none;fillColor=none;align=left;verticalAlign=middle;whiteSpace=wrap;rounded=0;" vertex="1" parent="lpf-UgZtvlRDL02pAS0L-782">
          <mxGeometry x="5" y="10" width="50" height="30" as="geometry" />
        </mxCell>
        <mxCell id="lpf-UgZtvlRDL02pAS0L-785" style="edgeStyle=orthogonalEdgeStyle;rounded=0;orthogonalLoop=1;jettySize=auto;html=1;entryX=0;entryY=0.5;entryDx=0;entryDy=0;" edge="1" parent="WIyWlLk6GJQsqaUBKTNV-1" source="lpf-UgZtvlRDL02pAS0L-784" target="lpf-UgZtvlRDL02pAS0L-388">
          <mxGeometry relative="1" as="geometry" />
        </mxCell>
        <mxCell id="lpf-UgZtvlRDL02pAS0L-786" value="PULL LATEST&lt;br&gt;VX FRD FILES Q1 2023" style="edgeLabel;html=1;align=center;verticalAlign=middle;resizable=0;points=[];" vertex="1" connectable="0" parent="lpf-UgZtvlRDL02pAS0L-785">
          <mxGeometry x="-0.6217" y="-1" relative="1" as="geometry">
            <mxPoint x="57" y="2" as="offset" />
          </mxGeometry>
        </mxCell>
      </root>
    </mxGraphModel>
  </diagram>
</mxfile>
